<?xml version="1.0" encoding="UTF-8"?>
<svg id="Layer_1" data-name="Layer 1" xmlns="http://www.w3.org/2000/svg" viewBox="0 0 330.3 129.07">
  <defs>
    <style>
      .cls-1 {
        fill: red;
      }

      .cls-1, .cls-2 {
        stroke-width: 0px;
      }

      .cls-2 {
        fill: #fff;
      }
    </style>
  </defs>
  <g>
    <path class="cls-2" d="M285.4,34.42c-.32,0-.63-.08-.92-.23l-8.04-4.23c-.29-.15-.61-.23-.93-.23s-.65.08-.93.23l-8.04,4.23c-.29.15-.6.23-.92.23-.58,0-1.14-.26-1.52-.71-.38-.45-.53-1.02-.43-1.6l1.54-8.95c.11-.65-.1-1.31-.58-1.78l-6.5-6.34c-.54-.53-.74-1.31-.5-2.03s.85-1.24,1.6-1.35l8.99-1.31c.65-.1,1.22-.51,1.51-1.1l4.02-8.14c.34-.68,1.01-1.1,1.77-1.1s1.44.42,1.77,1.1l4.02,8.14c.29.59.86,1,1.51,1.1l8.99,1.31c.75.11,1.36.62,1.6,1.35s.04,1.5-.5,2.03l-6.5,6.34c-.47.46-.69,1.12-.58,1.78l1.54,8.95c.1.59-.05,1.15-.43,1.6-.38.45-.94.71-1.52.71Z"/>
    <path class="cls-1" d="M275.51.03c.75,0,1.43.42,1.76,1.09l4.02,8.14c.29.6.86,1.01,1.52,1.11l8.99,1.31c.75.11,1.35.62,1.58,1.34.23.72.04,1.49-.5,2.01l-6.5,6.34c-.48.46-.69,1.13-.58,1.79l1.54,8.95c.1.58-.05,1.15-.43,1.59-.38.45-.93.71-1.51.71-.32,0-.62-.08-.91-.23l-8.04-4.23c-.29-.15-.61-.23-.94-.23s-.65.08-.94.23l-8.04,4.23c-.29.15-.6.23-.91.23-.58,0-1.13-.26-1.51-.71-.37-.44-.53-1.01-.43-1.59l1.54-8.95c.11-.66-.1-1.32-.58-1.79l-6.5-6.34c-.54-.53-.73-1.3-.5-2.01.23-.72.84-1.23,1.58-1.34l8.99-1.31c.66-.1,1.23-.51,1.52-1.11l4.02-8.14c.33-.68,1.01-1.09,1.76-1.09M275.51,0c-.71,0-1.42.37-1.79,1.11l-4.02,8.14c-.29.59-.85,1-1.5,1.09l-8.99,1.31c-1.63.24-2.29,2.25-1.1,3.4l6.5,6.34c.47.46.68,1.12.57,1.76l-1.54,8.95c-.22,1.29.8,2.33,1.96,2.33.31,0,.62-.07.93-.23l8.04-4.23c.29-.15.61-.23.93-.23s.64.08.93.23l8.04,4.23c.31.16.62.23.93.23,1.16,0,2.18-1.05,1.96-2.33l-1.54-8.95c-.11-.65.1-1.31.57-1.76l6.5-6.34c1.18-1.15.53-3.16-1.1-3.4l-8.99-1.31c-.65-.09-1.21-.5-1.5-1.09l-4.02-8.14c-.37-.74-1.08-1.11-1.79-1.11h0Z"/>
  </g>
  <g>
    <path class="cls-2" d="M248.62,34.42c-.32,0-.63-.08-.92-.23l-8.04-4.23c-.29-.15-.61-.23-.93-.23s-.65.08-.93.23l-8.04,4.23c-.29.15-.6.23-.92.23-.58,0-1.14-.26-1.52-.71-.38-.45-.53-1.02-.43-1.6l1.54-8.95c.11-.65-.1-1.31-.58-1.78l-6.5-6.34c-.54-.53-.74-1.31-.5-2.03s.85-1.24,1.6-1.35l8.99-1.31c.65-.1,1.22-.51,1.51-1.1l4.02-8.14c.34-.68,1.02-1.1,1.77-1.1s1.44.42,1.77,1.1l4.02,8.14c.29.59.86,1,1.51,1.1l8.99,1.31c.75.11,1.36.62,1.6,1.35s.04,1.5-.5,2.03l-6.5,6.34c-.47.46-.69,1.12-.58,1.78l1.54,8.95c.1.59-.05,1.15-.43,1.6-.38.45-.94.71-1.52.71Z"/>
    <path class="cls-1" d="M238.72.03c.75,0,1.43.42,1.76,1.09l4.02,8.14c.29.6.86,1.01,1.52,1.11l8.99,1.31c.75.11,1.35.62,1.58,1.34.23.72.04,1.49-.5,2.01l-6.5,6.34c-.48.46-.69,1.13-.58,1.79l1.54,8.95c.1.58-.05,1.15-.43,1.59-.38.45-.93.71-1.51.71-.32,0-.62-.08-.91-.23l-8.04-4.23c-.29-.15-.61-.23-.94-.23s-.65.08-.94.23l-8.04,4.23c-.29.15-.6.23-.91.23-.58,0-1.13-.26-1.51-.71-.37-.44-.53-1.01-.43-1.59l1.54-8.95c.11-.66-.1-1.32-.58-1.79l-6.5-6.34c-.54-.53-.73-1.3-.5-2.01.23-.72.84-1.23,1.59-1.34l8.99-1.31c.66-.1,1.23-.51,1.52-1.11l4.02-8.14c.33-.68,1.01-1.09,1.76-1.09M238.72,0c-.71,0-1.42.37-1.79,1.11l-4.02,8.14c-.29.59-.85,1-1.5,1.09l-8.99,1.31c-1.63.24-2.29,2.25-1.1,3.4l6.5,6.34c.47.46.68,1.12.57,1.76l-1.54,8.95c-.22,1.29.8,2.33,1.96,2.33.31,0,.62-.07.93-.23l8.04-4.23c.29-.15.61-.23.93-.23s.64.08.93.23l8.04,4.23c.31.16.62.23.93.23,1.16,0,2.18-1.05,1.96-2.33l-1.54-8.95c-.11-.65.1-1.31.57-1.76l6.5-6.34c1.18-1.15.53-3.16-1.1-3.4l-8.99-1.31c-.65-.09-1.21-.5-1.5-1.09l-4.02-8.14c-.37-.74-1.08-1.11-1.79-1.11h0Z"/>
  </g>
  <g>
    <path class="cls-2" d="M211.83,34.42c-.32,0-.63-.08-.92-.23l-8.04-4.23c-.29-.15-.61-.23-.93-.23s-.65.08-.93.23l-8.04,4.23c-.29.15-.6.23-.92.23-.58,0-1.14-.26-1.52-.71-.38-.45-.53-1.02-.43-1.6l1.54-8.95c.11-.65-.1-1.31-.58-1.78l-6.5-6.34c-.54-.53-.73-1.31-.5-2.03s.85-1.24,1.6-1.35l8.99-1.31c.65-.1,1.22-.51,1.51-1.1l4.02-8.14c.34-.68,1.01-1.1,1.77-1.1s1.44.42,1.77,1.1l4.02,8.14c.29.59.86,1,1.51,1.1l8.99,1.31c.75.11,1.36.62,1.6,1.35s.04,1.5-.5,2.03l-6.5,6.34c-.47.46-.69,1.12-.58,1.78l1.54,8.95c.1.59-.05,1.15-.43,1.6-.38.45-.94.71-1.52.71Z"/>
    <path class="cls-1" d="M201.94.03c.75,0,1.43.42,1.76,1.09l4.02,8.14c.29.6.86,1.01,1.52,1.11l8.99,1.31c.75.11,1.35.62,1.58,1.34.23.72.04,1.49-.5,2.01l-6.5,6.34c-.48.46-.69,1.13-.58,1.79l1.54,8.95c.1.58-.05,1.15-.43,1.59-.38.45-.93.71-1.51.71-.32,0-.62-.08-.91-.23l-8.04-4.23c-.29-.15-.61-.23-.94-.23s-.65.08-.94.23l-8.04,4.23c-.29.15-.6.23-.91.23-.58,0-1.13-.26-1.51-.71-.37-.44-.53-1.01-.43-1.59l1.54-8.95c.11-.66-.1-1.32-.58-1.79l-6.5-6.34c-.54-.53-.73-1.3-.5-2.01.23-.72.84-1.23,1.59-1.34l8.99-1.31c.66-.1,1.23-.51,1.52-1.11l4.02-8.14c.33-.68,1.01-1.09,1.76-1.09M201.94,0c-.71,0-1.42.37-1.79,1.11l-4.02,8.14c-.29.59-.85,1-1.5,1.09l-8.99,1.31c-1.63.24-2.29,2.25-1.1,3.4l6.5,6.34c.47.46.68,1.12.57,1.76l-1.54,8.95c-.22,1.29.8,2.33,1.96,2.33.31,0,.62-.07.93-.23l8.04-4.23c.29-.15.61-.23.93-.23s.64.08.93.23l8.04,4.23c.31.16.62.23.93.23,1.16,0,2.18-1.05,1.96-2.33l-1.54-8.95c-.11-.65.1-1.31.57-1.76l6.5-6.34c1.18-1.15.53-3.16-1.1-3.4l-8.99-1.31c-.65-.09-1.21-.5-1.5-1.09l-4.02-8.14c-.37-.74-1.08-1.11-1.79-1.11h0Z"/>
  </g>
  <g>
    <path class="cls-2" d="M175.04,34.42c-.32,0-.63-.08-.92-.23l-8.04-4.23c-.29-.15-.61-.23-.93-.23s-.65.08-.93.23l-8.04,4.23c-.29.15-.6.23-.92.23-.58,0-1.14-.26-1.52-.71-.38-.45-.53-1.02-.43-1.6l1.54-8.95c.11-.65-.1-1.31-.58-1.78l-6.5-6.34c-.54-.53-.73-1.31-.5-2.03.23-.72.85-1.24,1.6-1.35l8.99-1.31c.65-.1,1.22-.51,1.51-1.1l4.02-8.14c.34-.68,1.02-1.1,1.77-1.1s1.44.42,1.77,1.1l4.02,8.14c.29.59.86,1,1.51,1.1l8.99,1.31c.75.11,1.36.62,1.6,1.35s.04,1.5-.5,2.03l-6.5,6.34c-.47.46-.69,1.13-.58,1.78l1.54,8.95c.1.59-.05,1.15-.43,1.6-.38.45-.94.71-1.52.71Z"/>
    <path class="cls-1" d="M165.15.03c.75,0,1.43.42,1.76,1.09l4.02,8.14c.29.6.86,1.01,1.52,1.11l8.99,1.31c.75.11,1.35.62,1.58,1.34.23.72.04,1.49-.5,2.01l-6.5,6.34c-.48.46-.69,1.13-.58,1.79l1.54,8.95c.1.58-.05,1.15-.43,1.59-.38.45-.93.71-1.51.71-.32,0-.62-.08-.91-.23l-8.04-4.23c-.29-.15-.61-.23-.94-.23s-.65.08-.94.23l-8.04,4.23c-.29.15-.6.23-.91.23-.58,0-1.13-.26-1.51-.71-.37-.44-.53-1.01-.43-1.59l1.54-8.95c.11-.66-.1-1.32-.58-1.79l-6.5-6.34c-.54-.53-.73-1.3-.5-2.01.23-.72.84-1.23,1.59-1.34l8.99-1.31c.66-.1,1.23-.51,1.52-1.11l4.02-8.14c.33-.68,1.01-1.09,1.76-1.09M165.15,0c-.71,0-1.42.37-1.79,1.11l-4.02,8.14c-.29.59-.85,1-1.5,1.09l-8.99,1.31c-1.63.24-2.29,2.25-1.1,3.4l6.5,6.34c.47.46.68,1.12.57,1.76l-1.54,8.95c-.22,1.29.8,2.33,1.96,2.33.31,0,.62-.07.93-.23l8.04-4.23c.29-.15.61-.23.93-.23s.64.08.93.23l8.04,4.23c.31.16.62.23.93.23,1.16,0,2.18-1.05,1.96-2.33l-1.54-8.95c-.11-.65.1-1.31.57-1.76l6.5-6.34c1.18-1.15.53-3.16-1.1-3.4l-8.99-1.31c-.65-.09-1.21-.5-1.5-1.09l-4.02-8.14c-.37-.74-1.08-1.11-1.79-1.11h0Z"/>
  </g>
  <g>
    <path class="cls-2" d="M138.25,34.42c-.32,0-.63-.08-.92-.23l-8.04-4.23c-.29-.15-.61-.23-.93-.23s-.65.08-.93.23l-8.04,4.23c-.29.15-.6.23-.92.23-.58,0-1.14-.26-1.52-.71-.38-.45-.53-1.02-.43-1.6l1.54-8.95c.11-.65-.1-1.31-.58-1.78l-6.5-6.34c-.54-.53-.73-1.31-.5-2.03.23-.72.85-1.24,1.6-1.35l8.99-1.31c.65-.1,1.22-.51,1.51-1.1l4.02-8.14c.34-.68,1.02-1.1,1.77-1.1s1.44.42,1.77,1.1l4.02,8.14c.29.59.86,1,1.51,1.1l8.99,1.31c.75.11,1.36.62,1.6,1.35.23.72.04,1.5-.5,2.03l-6.5,6.34c-.47.46-.69,1.12-.58,1.78l1.54,8.95c.1.59-.05,1.15-.43,1.6-.38.45-.94.71-1.52.71Z"/>
    <path class="cls-1" d="M128.36.03c.75,0,1.43.42,1.76,1.09l4.02,8.14c.29.6.86,1.01,1.52,1.11l8.99,1.31c.75.11,1.35.62,1.58,1.34.23.72.04,1.49-.5,2.01l-6.5,6.34c-.48.46-.69,1.13-.58,1.79l1.54,8.95c.1.58-.05,1.15-.43,1.59-.38.45-.93.71-1.51.71-.32,0-.62-.08-.91-.23l-8.04-4.23c-.29-.15-.61-.23-.94-.23s-.65.08-.94.23l-8.04,4.23c-.29.15-.6.23-.91.23-.58,0-1.13-.26-1.51-.71-.37-.44-.53-1.01-.43-1.59l1.54-8.95c.11-.66-.1-1.32-.58-1.79l-6.5-6.34c-.54-.53-.73-1.3-.5-2.01.23-.72.84-1.23,1.58-1.34l8.99-1.31c.66-.1,1.23-.51,1.52-1.11l4.02-8.14c.33-.68,1.01-1.09,1.76-1.09M128.36,0c-.71,0-1.42.37-1.79,1.11l-4.02,8.14c-.29.59-.85,1-1.5,1.09l-8.99,1.31c-1.63.24-2.29,2.25-1.1,3.4l6.5,6.34c.47.46.68,1.12.57,1.76l-1.54,8.95c-.22,1.29.8,2.33,1.96,2.33.31,0,.62-.07.93-.23l8.04-4.23c.29-.15.61-.23.93-.23s.64.08.93.23l8.04,4.23c.31.16.62.23.93.23,1.16,0,2.18-1.05,1.96-2.33l-1.54-8.95c-.11-.65.1-1.31.57-1.76l6.5-6.34c1.18-1.15.53-3.16-1.1-3.4l-8.99-1.31c-.65-.09-1.21-.5-1.5-1.09l-4.02-8.14c-.37-.74-1.08-1.11-1.79-1.11h0Z"/>
  </g>
  <g>
    <path class="cls-2" d="M322.19,34.42c-.32,0-.63-.08-.92-.23l-8.04-4.23c-.29-.15-.61-.23-.93-.23s-.65.08-.93.23l-8.04,4.23c-.29.15-.6.23-.92.23-.58,0-1.14-.26-1.52-.71-.38-.45-.53-1.02-.43-1.6l1.54-8.95c.11-.65-.1-1.31-.58-1.78l-6.5-6.34c-.54-.53-.74-1.31-.5-2.03s.85-1.24,1.6-1.35l8.99-1.31c.65-.1,1.22-.51,1.51-1.1l4.02-8.14c.34-.68,1.01-1.1,1.77-1.1s1.44.42,1.77,1.1l4.02,8.14c.29.59.86,1,1.51,1.1l8.99,1.31c.75.11,1.36.62,1.6,1.35s.04,1.5-.5,2.03l-6.5,6.34c-.47.46-.69,1.12-.58,1.78l1.54,8.95c.1.59-.05,1.15-.43,1.6-.38.45-.94.71-1.52.71Z"/>
    <path class="cls-1" d="M312.3.03c.75,0,1.43.42,1.76,1.09l4.02,8.14c.29.6.86,1.01,1.52,1.11l8.99,1.31c.75.11,1.35.62,1.58,1.34.23.72.04,1.49-.5,2.01l-6.5,6.34c-.48.46-.69,1.13-.58,1.79l1.54,8.95c.1.58-.05,1.15-.43,1.59-.38.45-.93.71-1.51.71-.32,0-.62-.08-.91-.23l-8.04-4.23c-.29-.15-.61-.23-.94-.23s-.65.08-.94.23l-8.04,4.23c-.29.15-.6.23-.91.23-.58,0-1.13-.26-1.51-.71-.37-.44-.53-1.01-.43-1.59l1.54-8.95c.11-.66-.1-1.32-.58-1.79l-6.5-6.34c-.54-.53-.73-1.3-.5-2.01.23-.72.84-1.23,1.58-1.34l8.99-1.31c.66-.1,1.23-.51,1.52-1.11l4.02-8.14c.33-.68,1.01-1.09,1.76-1.09M312.3,0c-.71,0-1.42.37-1.79,1.11l-4.02,8.14c-.29.59-.85,1-1.5,1.09l-8.99,1.31c-1.63.24-2.29,2.25-1.1,3.4l6.5,6.34c.47.46.68,1.12.57,1.76l-1.54,8.95c-.22,1.29.8,2.33,1.96,2.33.31,0,.62-.07.93-.23l8.04-4.23c.29-.15.61-.23.93-.23s.64.08.93.23l8.04,4.23c.31.16.62.23.93.23,1.16,0,2.18-1.05,1.96-2.33l-1.54-8.95c-.11-.65.1-1.31.57-1.76l6.5-6.34c1.18-1.15.53-3.16-1.1-3.4l-8.99-1.31c-.65-.09-1.21-.5-1.5-1.09l-4.02-8.14c-.37-.74-1.08-1.11-1.79-1.11h0Z"/>
  </g>
  <g>
    <path class="cls-2" d="M27.89,34.42c-.32,0-.63-.08-.92-.23l-8.04-4.23c-.29-.15-.61-.23-.93-.23s-.65.08-.93.23l-8.04,4.23c-.29.15-.6.23-.92.23-.58,0-1.14-.26-1.52-.71-.38-.45-.53-1.02-.43-1.6l1.54-8.95c.11-.65-.1-1.31-.58-1.78L.61,15.04c-.54-.53-.73-1.31-.5-2.03.23-.72.85-1.24,1.6-1.35l8.99-1.31c.65-.1,1.22-.51,1.51-1.1L16.23,1.12C16.56.44,17.24.01,18,.01s1.44.42,1.77,1.1l4.02,8.14c.29.59.86,1,1.51,1.1l8.99,1.31c.75.11,1.36.62,1.6,1.35.23.72.04,1.5-.5,2.03l-6.5,6.34c-.47.46-.69,1.13-.58,1.78l1.54,8.95c.1.59-.05,1.15-.43,1.6-.38.45-.94.71-1.52.71Z"/>
    <path class="cls-1" d="M18,.03c.75,0,1.43.42,1.76,1.09l4.02,8.14c.29.6.86,1.01,1.52,1.11l8.99,1.31c.75.11,1.35.62,1.58,1.34.23.72.04,1.49-.5,2.01l-6.5,6.34c-.48.46-.69,1.13-.58,1.79l1.54,8.95c.1.58-.05,1.15-.43,1.59-.38.45-.93.71-1.51.71-.32,0-.62-.08-.91-.23l-8.04-4.23c-.29-.15-.61-.23-.94-.23s-.65.08-.94.23l-8.04,4.23c-.29.15-.6.23-.91.23-.58,0-1.13-.26-1.51-.71-.37-.44-.53-1.01-.43-1.59l1.54-8.95c.11-.66-.1-1.32-.58-1.79L.62,15.03c-.54-.53-.73-1.3-.5-2.01.23-.72.84-1.23,1.59-1.34l8.99-1.31c.66-.1,1.23-.51,1.52-1.11L16.24,1.12c.33-.68,1.01-1.09,1.76-1.09M18,0c-.71,0-1.42.37-1.79,1.11l-4.02,8.14c-.29.59-.85,1-1.5,1.09l-8.99,1.31c-1.63.24-2.29,2.25-1.1,3.4l6.5,6.34c.47.46.68,1.12.57,1.76l-1.54,8.95c-.22,1.29.8,2.33,1.96,2.33.31,0,.62-.07.93-.23l8.04-4.23c.29-.15.61-.23.93-.23s.64.08.93.23l8.04,4.23c.31.16.62.23.93.23,1.16,0,2.18-1.05,1.96-2.33l-1.54-8.95c-.11-.65.1-1.31.57-1.76l6.5-6.34c1.18-1.15.53-3.16-1.1-3.4l-8.99-1.31c-.65-.09-1.21-.5-1.5-1.09L19.79,1.11c-.37-.74-1.08-1.11-1.79-1.11h0Z"/>
  </g>
  <g>
    <path class="cls-2" d="M64.68,34.42c-.32,0-.63-.08-.92-.23l-8.04-4.23c-.29-.15-.61-.23-.93-.23s-.65.08-.93.23l-8.04,4.23c-.29.15-.6.23-.92.23-.58,0-1.14-.26-1.52-.71-.38-.45-.53-1.02-.43-1.6l1.54-8.95c.11-.65-.1-1.31-.58-1.78l-6.5-6.34c-.54-.53-.73-1.31-.5-2.03.23-.72.85-1.24,1.6-1.35l8.99-1.31c.65-.1,1.22-.51,1.51-1.1l4.02-8.14c.34-.68,1.02-1.1,1.77-1.1s1.44.42,1.77,1.1l4.02,8.14c.29.59.86,1,1.51,1.1l8.99,1.31c.75.11,1.36.62,1.6,1.35.23.72.04,1.5-.5,2.03l-6.5,6.34c-.47.46-.69,1.13-.58,1.78l1.54,8.95c.1.59-.05,1.15-.43,1.6-.38.45-.94.71-1.52.71Z"/>
    <path class="cls-1" d="M54.79.03c.75,0,1.43.42,1.76,1.09l4.02,8.14c.29.6.86,1.01,1.52,1.11l8.99,1.31c.75.11,1.35.62,1.58,1.34.23.72.04,1.49-.5,2.01l-6.5,6.34c-.48.46-.69,1.13-.58,1.79l1.54,8.95c.1.58-.05,1.15-.43,1.59-.38.45-.93.71-1.51.71-.32,0-.62-.08-.91-.23l-8.04-4.23c-.29-.15-.61-.23-.94-.23s-.65.08-.94.23l-8.04,4.23c-.29.15-.6.23-.91.23-.58,0-1.13-.26-1.51-.71-.37-.44-.53-1.01-.43-1.59l1.54-8.95c.11-.66-.1-1.32-.58-1.79l-6.5-6.34c-.54-.53-.73-1.3-.5-2.01.23-.72.84-1.23,1.59-1.34l8.99-1.31c.66-.1,1.23-.51,1.52-1.11l4.02-8.14c.33-.68,1.01-1.09,1.76-1.09M54.79,0c-.71,0-1.42.37-1.79,1.11l-4.02,8.14c-.29.59-.85,1-1.5,1.09l-8.99,1.31c-1.63.24-2.29,2.25-1.1,3.4l6.5,6.34c.47.46.68,1.12.57,1.76l-1.54,8.95c-.22,1.29.8,2.33,1.96,2.33.31,0,.62-.07.93-.23l8.04-4.23c.29-.15.61-.23.93-.23s.64.08.93.23l8.04,4.23c.31.16.62.23.93.23,1.16,0,2.18-1.05,1.96-2.33l-1.54-8.95c-.11-.65.1-1.31.57-1.76l6.5-6.34c1.18-1.15.53-3.16-1.1-3.4l-8.99-1.31c-.65-.09-1.21-.5-1.5-1.09l-4.02-8.14c-.37-.74-1.08-1.11-1.79-1.11h0Z"/>
  </g>
  <g>
    <path class="cls-2" d="M101.47,34.42c-.32,0-.63-.08-.92-.23l-8.04-4.23c-.29-.15-.61-.23-.93-.23s-.65.08-.93.23l-8.04,4.23c-.29.15-.6.23-.92.23-.58,0-1.14-.26-1.52-.71-.38-.45-.53-1.02-.43-1.6l1.54-8.95c.11-.65-.1-1.31-.58-1.78l-6.5-6.34c-.54-.53-.73-1.31-.5-2.03.23-.72.85-1.24,1.6-1.35l8.99-1.31c.65-.1,1.22-.51,1.51-1.1l4.02-8.14c.34-.68,1.02-1.1,1.77-1.1s1.44.42,1.77,1.1l4.02,8.14c.29.59.86,1,1.51,1.1l8.99,1.31c.75.11,1.36.62,1.6,1.35.23.72.04,1.5-.5,2.03l-6.5,6.34c-.47.46-.69,1.13-.58,1.78l1.54,8.95c.1.59-.05,1.15-.43,1.6-.38.45-.94.71-1.52.71Z"/>
    <path class="cls-1" d="M91.57.03c.75,0,1.43.42,1.76,1.09l4.02,8.14c.29.6.86,1.01,1.52,1.11l8.99,1.31c.75.11,1.35.62,1.58,1.34.23.72.04,1.49-.5,2.01l-6.5,6.34c-.48.46-.69,1.13-.58,1.79l1.54,8.95c.1.58-.05,1.15-.43,1.59-.38.45-.93.71-1.51.71-.32,0-.62-.08-.91-.23l-8.04-4.23c-.29-.15-.61-.23-.94-.23s-.65.08-.94.23l-8.04,4.23c-.29.15-.6.23-.91.23-.58,0-1.13-.26-1.51-.71-.37-.44-.53-1.01-.43-1.59l1.54-8.95c.11-.66-.1-1.32-.58-1.79l-6.5-6.34c-.54-.53-.73-1.3-.5-2.01.23-.72.84-1.23,1.58-1.34l8.99-1.31c.66-.1,1.23-.51,1.52-1.11l4.02-8.14c.33-.68,1.01-1.09,1.76-1.09M91.57,0c-.71,0-1.42.37-1.79,1.11l-4.02,8.14c-.29.59-.85,1-1.5,1.09l-8.99,1.31c-1.63.24-2.29,2.25-1.1,3.4l6.5,6.34c.47.46.68,1.12.57,1.76l-1.54,8.95c-.22,1.29.8,2.33,1.96,2.33.31,0,.62-.07.93-.23l8.04-4.23c.29-.15.61-.23.93-.23s.64.08.93.23l8.04,4.23c.31.16.62.23.93.23,1.16,0,2.18-1.05,1.96-2.33l-1.54-8.95c-.11-.65.1-1.31.57-1.76l6.5-6.34c1.18-1.15.53-3.16-1.1-3.4l-8.99-1.31c-.65-.09-1.21-.5-1.5-1.09l-4.02-8.14c-.37-.74-1.08-1.11-1.79-1.11h0Z"/>
  </g>
  <g>
    <path class="cls-2" d="M285.4,66.08c-.32,0-.63-.08-.92-.23l-8.04-4.23c-.29-.15-.61-.23-.93-.23s-.65.08-.93.23l-8.04,4.23c-.29.15-.6.23-.92.23-.58,0-1.14-.26-1.52-.71-.38-.45-.53-1.02-.43-1.6l1.54-8.95c.11-.65-.1-1.32-.58-1.78l-6.5-6.34c-.54-.53-.74-1.31-.5-2.03s.85-1.24,1.6-1.35l8.99-1.31c.65-.1,1.22-.51,1.51-1.1l4.02-8.14c.34-.68,1.01-1.1,1.77-1.1s1.44.42,1.77,1.1l4.02,8.14c.29.59.86,1,1.51,1.1l8.99,1.31c.75.11,1.36.62,1.6,1.35s.04,1.5-.5,2.03l-6.5,6.34c-.47.46-.69,1.12-.58,1.78l1.54,8.95c.1.59-.05,1.15-.43,1.6-.38.45-.94.71-1.52.71Z"/>
    <path class="cls-1" d="M275.51,31.69c.75,0,1.43.42,1.76,1.09l4.02,8.14c.29.6.86,1.01,1.52,1.11l8.99,1.31c.75.11,1.35.62,1.58,1.34s.04,1.49-.5,2.01l-6.5,6.34c-.48.46-.69,1.13-.58,1.79l1.54,8.95c.1.58-.05,1.15-.43,1.59-.38.45-.93.71-1.51.71-.32,0-.62-.08-.91-.23l-8.04-4.23c-.29-.15-.61-.23-.94-.23s-.65.08-.94.23l-8.04,4.23c-.29.15-.6.23-.91.23-.58,0-1.13-.26-1.51-.71-.37-.44-.53-1.01-.43-1.59l1.54-8.95c.11-.66-.1-1.32-.58-1.79l-6.5-6.34c-.54-.53-.73-1.3-.5-2.01.23-.72.84-1.23,1.58-1.34l8.99-1.31c.66-.1,1.23-.51,1.52-1.11l4.02-8.14c.33-.68,1.01-1.09,1.76-1.09M275.51,31.66c-.71,0-1.42.37-1.79,1.11l-4.02,8.14c-.29.59-.85,1-1.5,1.09l-8.99,1.31c-1.63.24-2.29,2.25-1.1,3.4l6.5,6.34c.47.46.68,1.12.57,1.76l-1.54,8.95c-.22,1.29.8,2.33,1.96,2.33.31,0,.62-.07.93-.23l8.04-4.23c.29-.15.61-.23.93-.23s.64.08.93.23l8.04,4.23c.31.16.62.23.93.23,1.16,0,2.18-1.05,1.96-2.33l-1.54-8.95c-.11-.65.1-1.31.57-1.76l6.5-6.34c1.18-1.15.53-3.16-1.1-3.4l-8.99-1.31c-.65-.09-1.21-.5-1.5-1.09l-4.02-8.14c-.37-.74-1.08-1.11-1.79-1.11h0Z"/>
  </g>
  <g>
    <path class="cls-2" d="M248.62,66.08c-.32,0-.63-.08-.92-.23l-8.04-4.23c-.29-.15-.61-.23-.93-.23s-.65.08-.93.23l-8.04,4.23c-.29.15-.6.23-.92.23-.58,0-1.14-.26-1.52-.71-.38-.45-.53-1.02-.43-1.6l1.54-8.95c.11-.65-.1-1.32-.58-1.78l-6.5-6.34c-.54-.53-.74-1.31-.5-2.03s.85-1.24,1.6-1.35l8.99-1.31c.65-.1,1.22-.51,1.51-1.1l4.02-8.14c.34-.68,1.02-1.1,1.77-1.1s1.44.42,1.77,1.1l4.02,8.14c.29.59.86,1,1.51,1.1l8.99,1.31c.75.11,1.36.62,1.6,1.35s.04,1.5-.5,2.03l-6.5,6.34c-.47.46-.69,1.12-.58,1.78l1.54,8.95c.1.59-.05,1.15-.43,1.6-.38.45-.94.71-1.52.71Z"/>
    <path class="cls-1" d="M238.72,31.69c.75,0,1.43.42,1.76,1.09l4.02,8.14c.29.6.86,1.01,1.52,1.11l8.99,1.31c.75.11,1.35.62,1.58,1.34s.04,1.49-.5,2.01l-6.5,6.34c-.48.46-.69,1.13-.58,1.79l1.54,8.95c.1.58-.05,1.15-.43,1.59-.38.45-.93.71-1.51.71-.32,0-.62-.08-.91-.23l-8.04-4.23c-.29-.15-.61-.23-.94-.23s-.65.08-.94.23l-8.04,4.23c-.29.15-.6.23-.91.23-.58,0-1.13-.26-1.51-.71-.37-.44-.53-1.01-.43-1.59l1.54-8.95c.11-.66-.1-1.32-.58-1.79l-6.5-6.34c-.54-.53-.73-1.3-.5-2.01.23-.72.84-1.23,1.59-1.34l8.99-1.31c.66-.1,1.23-.51,1.52-1.11l4.02-8.14c.33-.68,1.01-1.09,1.76-1.09M238.72,31.66c-.71,0-1.42.37-1.79,1.11l-4.02,8.14c-.29.59-.85,1-1.5,1.09l-8.99,1.31c-1.63.24-2.29,2.25-1.1,3.4l6.5,6.34c.47.46.68,1.12.57,1.76l-1.54,8.95c-.22,1.29.8,2.33,1.96,2.33.31,0,.62-.07.93-.23l8.04-4.23c.29-.15.61-.23.93-.23s.64.08.93.23l8.04,4.23c.31.16.62.23.93.23,1.16,0,2.18-1.05,1.96-2.33l-1.54-8.95c-.11-.65.1-1.31.57-1.76l6.5-6.34c1.18-1.15.53-3.16-1.1-3.4l-8.99-1.31c-.65-.09-1.21-.5-1.5-1.09l-4.02-8.14c-.37-.74-1.08-1.11-1.79-1.11h0Z"/>
  </g>
  <g>
    <path class="cls-2" d="M211.83,66.08c-.32,0-.63-.08-.92-.23l-8.04-4.23c-.29-.15-.61-.23-.93-.23s-.65.08-.93.23l-8.04,4.23c-.29.15-.6.23-.92.23-.58,0-1.14-.26-1.52-.71-.38-.45-.53-1.02-.43-1.6l1.54-8.95c.11-.65-.1-1.31-.58-1.78l-6.5-6.34c-.54-.53-.73-1.31-.5-2.03s.85-1.24,1.6-1.35l8.99-1.31c.65-.1,1.22-.51,1.51-1.1l4.02-8.14c.34-.68,1.01-1.1,1.77-1.1s1.44.42,1.77,1.1l4.02,8.14c.29.59.86,1,1.51,1.1l8.99,1.31c.75.11,1.36.62,1.6,1.35s.04,1.5-.5,2.03l-6.5,6.34c-.47.46-.69,1.12-.58,1.78l1.54,8.95c.1.59-.05,1.15-.43,1.6-.38.45-.94.71-1.52.71Z"/>
    <path class="cls-1" d="M201.94,31.69c.75,0,1.43.42,1.76,1.09l4.02,8.14c.29.6.86,1.01,1.52,1.11l8.99,1.31c.75.11,1.35.62,1.58,1.34.23.72.04,1.49-.5,2.01l-6.5,6.34c-.48.46-.69,1.13-.58,1.79l1.54,8.95c.1.58-.05,1.15-.43,1.59-.38.45-.93.71-1.51.71-.32,0-.62-.08-.91-.23l-8.04-4.23c-.29-.15-.61-.23-.94-.23s-.65.08-.94.23l-8.04,4.23c-.29.15-.6.23-.91.23-.58,0-1.13-.26-1.51-.71-.37-.44-.53-1.01-.43-1.59l1.54-8.95c.11-.66-.1-1.32-.58-1.79l-6.5-6.34c-.54-.53-.73-1.3-.5-2.01.23-.72.84-1.23,1.59-1.34l8.99-1.31c.66-.1,1.23-.51,1.52-1.11l4.02-8.14c.33-.68,1.01-1.09,1.76-1.09M201.94,31.66c-.71,0-1.42.37-1.79,1.11l-4.02,8.14c-.29.59-.85,1-1.5,1.09l-8.99,1.31c-1.63.24-2.29,2.25-1.1,3.4l6.5,6.34c.47.46.68,1.12.57,1.76l-1.54,8.95c-.22,1.29.8,2.33,1.96,2.33.31,0,.62-.07.93-.23l8.04-4.23c.29-.15.61-.23.93-.23s.64.08.93.23l8.04,4.23c.31.16.62.23.93.23,1.16,0,2.18-1.05,1.96-2.33l-1.54-8.95c-.11-.65.1-1.31.57-1.76l6.5-6.34c1.18-1.15.53-3.16-1.1-3.4l-8.99-1.31c-.65-.09-1.21-.5-1.5-1.09l-4.02-8.14c-.37-.74-1.08-1.11-1.79-1.11h0Z"/>
  </g>
  <g>
    <path class="cls-2" d="M175.04,66.08c-.32,0-.63-.08-.92-.23l-8.04-4.23c-.29-.15-.61-.23-.93-.23s-.65.08-.93.23l-8.04,4.23c-.29.15-.6.23-.92.23-.58,0-1.14-.26-1.52-.71-.38-.45-.53-1.02-.43-1.6l1.54-8.95c.11-.65-.1-1.31-.58-1.78l-6.5-6.34c-.54-.53-.73-1.31-.5-2.03.23-.72.85-1.24,1.6-1.35l8.99-1.31c.65-.1,1.22-.51,1.51-1.1l4.02-8.14c.34-.68,1.02-1.1,1.77-1.1s1.44.42,1.77,1.1l4.02,8.14c.29.59.86,1,1.51,1.1l8.99,1.31c.75.11,1.36.62,1.6,1.35s.04,1.5-.5,2.03l-6.5,6.34c-.47.46-.69,1.13-.58,1.78l1.54,8.95c.1.59-.05,1.15-.43,1.6-.38.45-.94.71-1.52.71Z"/>
    <path class="cls-1" d="M165.15,31.69c.75,0,1.43.42,1.76,1.09l4.02,8.14c.29.6.86,1.01,1.52,1.11l8.99,1.31c.75.11,1.35.62,1.58,1.34.23.72.04,1.49-.5,2.01l-6.5,6.34c-.48.46-.69,1.13-.58,1.79l1.54,8.95c.1.58-.05,1.15-.43,1.59-.38.45-.93.71-1.51.71-.32,0-.62-.08-.91-.23l-8.04-4.23c-.29-.15-.61-.23-.94-.23s-.65.08-.94.23l-8.04,4.23c-.29.15-.6.23-.91.23-.58,0-1.13-.26-1.51-.71-.37-.44-.53-1.01-.43-1.59l1.54-8.95c.11-.66-.1-1.32-.58-1.79l-6.5-6.34c-.54-.53-.73-1.3-.5-2.01.23-.72.84-1.23,1.59-1.34l8.99-1.31c.66-.1,1.23-.51,1.52-1.11l4.02-8.14c.33-.68,1.01-1.09,1.76-1.09M165.15,31.66c-.71,0-1.42.37-1.79,1.11l-4.02,8.14c-.29.59-.85,1-1.5,1.09l-8.99,1.31c-1.63.24-2.29,2.25-1.1,3.4l6.5,6.34c.47.46.68,1.12.57,1.76l-1.54,8.95c-.22,1.29.8,2.33,1.96,2.33.31,0,.62-.07.93-.23l8.04-4.23c.29-.15.61-.23.93-.23s.64.08.93.23l8.04,4.23c.31.16.62.23.93.23,1.16,0,2.18-1.05,1.96-2.33l-1.54-8.95c-.11-.65.1-1.31.57-1.76l6.5-6.34c1.18-1.15.53-3.16-1.1-3.4l-8.99-1.31c-.65-.09-1.21-.5-1.5-1.09l-4.02-8.14c-.37-.74-1.08-1.11-1.79-1.11h0Z"/>
  </g>
  <g>
    <path class="cls-2" d="M138.25,66.08c-.32,0-.63-.08-.92-.23l-8.04-4.23c-.29-.15-.61-.23-.93-.23s-.65.08-.93.23l-8.04,4.23c-.29.15-.6.23-.92.23-.58,0-1.14-.26-1.52-.71-.38-.45-.53-1.02-.43-1.6l1.54-8.95c.11-.65-.1-1.31-.58-1.78l-6.5-6.34c-.54-.53-.73-1.31-.5-2.03.23-.72.85-1.24,1.6-1.35l8.99-1.31c.65-.1,1.22-.51,1.51-1.1l4.02-8.14c.34-.68,1.02-1.1,1.77-1.1s1.44.42,1.77,1.1l4.02,8.14c.29.59.86,1,1.51,1.1l8.99,1.31c.75.11,1.36.62,1.6,1.35.23.72.04,1.5-.5,2.03l-6.5,6.34c-.47.46-.69,1.12-.58,1.78l1.54,8.95c.1.59-.05,1.15-.43,1.6-.38.45-.94.71-1.52.71Z"/>
    <path class="cls-1" d="M128.36,31.69c.75,0,1.43.42,1.76,1.09l4.02,8.14c.29.6.86,1.01,1.52,1.11l8.99,1.31c.75.11,1.35.62,1.58,1.34.23.72.04,1.49-.5,2.01l-6.5,6.34c-.48.46-.69,1.13-.58,1.79l1.54,8.95c.1.58-.05,1.15-.43,1.59-.38.45-.93.71-1.51.71-.32,0-.62-.08-.91-.23l-8.04-4.23c-.29-.15-.61-.23-.94-.23s-.65.08-.94.23l-8.04,4.23c-.29.15-.6.23-.91.23-.58,0-1.13-.26-1.51-.71-.37-.44-.53-1.01-.43-1.59l1.54-8.95c.11-.66-.1-1.32-.58-1.79l-6.5-6.34c-.54-.53-.73-1.3-.5-2.01.23-.72.84-1.23,1.58-1.34l8.99-1.31c.66-.1,1.23-.51,1.52-1.11l4.02-8.14c.33-.68,1.01-1.09,1.76-1.09M128.36,31.66c-.71,0-1.42.37-1.79,1.11l-4.02,8.14c-.29.59-.85,1-1.5,1.09l-8.99,1.31c-1.63.24-2.29,2.25-1.1,3.4l6.5,6.34c.47.46.68,1.12.57,1.76l-1.54,8.95c-.22,1.29.8,2.33,1.96,2.33.31,0,.62-.07.93-.23l8.04-4.23c.29-.15.61-.23.93-.23s.64.08.93.23l8.04,4.23c.31.16.62.23.93.23,1.16,0,2.18-1.05,1.96-2.33l-1.54-8.95c-.11-.65.1-1.31.57-1.76l6.5-6.34c1.18-1.15.53-3.16-1.1-3.4l-8.99-1.31c-.65-.09-1.21-.5-1.5-1.09l-4.02-8.14c-.37-.74-1.08-1.11-1.79-1.11h0Z"/>
  </g>
  <g>
    <path class="cls-2" d="M322.19,66.08c-.32,0-.63-.08-.92-.23l-8.04-4.23c-.29-.15-.61-.23-.93-.23s-.65.08-.93.23l-8.04,4.23c-.29.15-.6.23-.92.23-.58,0-1.14-.26-1.52-.71-.38-.45-.53-1.02-.43-1.6l1.54-8.95c.11-.65-.1-1.32-.58-1.78l-6.5-6.34c-.54-.53-.74-1.31-.5-2.03s.85-1.24,1.6-1.35l8.99-1.31c.65-.1,1.22-.51,1.51-1.1l4.02-8.14c.34-.68,1.01-1.1,1.77-1.1s1.44.42,1.77,1.1l4.02,8.14c.29.59.86,1,1.51,1.1l8.99,1.31c.75.11,1.36.62,1.6,1.35s.04,1.5-.5,2.03l-6.5,6.34c-.47.46-.69,1.12-.58,1.78l1.54,8.95c.1.59-.05,1.15-.43,1.6-.38.45-.94.71-1.52.71Z"/>
    <path class="cls-1" d="M312.3,31.69c.75,0,1.43.42,1.76,1.09l4.02,8.14c.29.6.86,1.01,1.52,1.11l8.99,1.31c.75.11,1.35.62,1.58,1.34s.04,1.49-.5,2.01l-6.5,6.34c-.48.46-.69,1.13-.58,1.79l1.54,8.95c.1.58-.05,1.15-.43,1.59-.38.45-.93.71-1.51.71-.32,0-.62-.08-.91-.23l-8.04-4.23c-.29-.15-.61-.23-.94-.23s-.65.08-.94.23l-8.04,4.23c-.29.15-.6.23-.91.23-.58,0-1.13-.26-1.51-.71-.37-.44-.53-1.01-.43-1.59l1.54-8.95c.11-.66-.1-1.32-.58-1.79l-6.5-6.34c-.54-.53-.73-1.3-.5-2.01s.84-1.23,1.58-1.34l8.99-1.31c.66-.1,1.23-.51,1.52-1.11l4.02-8.14c.33-.68,1.01-1.09,1.76-1.09M312.3,31.66c-.71,0-1.42.37-1.79,1.11l-4.02,8.14c-.29.59-.85,1-1.5,1.09l-8.99,1.31c-1.63.24-2.29,2.25-1.1,3.4l6.5,6.34c.47.46.68,1.12.57,1.76l-1.54,8.95c-.22,1.29.8,2.33,1.96,2.33.31,0,.62-.07.93-.23l8.04-4.23c.29-.15.61-.23.93-.23s.64.08.93.23l8.04,4.23c.31.16.62.23.93.23,1.16,0,2.18-1.05,1.96-2.33l-1.54-8.95c-.11-.65.1-1.31.57-1.76l6.5-6.34c1.18-1.15.53-3.16-1.1-3.4l-8.99-1.31c-.65-.09-1.21-.5-1.5-1.09l-4.02-8.14c-.37-.74-1.08-1.11-1.79-1.11h0Z"/>
  </g>
  <g>
    <path class="cls-2" d="M27.89,66.08c-.32,0-.63-.08-.92-.23l-8.04-4.23c-.29-.15-.61-.23-.93-.23s-.65.08-.93.23l-8.04,4.23c-.29.15-.6.23-.92.23-.58,0-1.14-.26-1.52-.71-.38-.45-.53-1.02-.43-1.6l1.54-8.95c.11-.65-.1-1.32-.58-1.78l-6.5-6.34c-.54-.53-.73-1.31-.5-2.03.23-.72.85-1.24,1.6-1.35l8.99-1.31c.65-.1,1.22-.51,1.51-1.1l4.02-8.14c.34-.68,1.02-1.1,1.77-1.1s1.44.42,1.77,1.1l4.02,8.14c.29.59.86,1,1.51,1.1l8.99,1.31c.75.11,1.36.62,1.6,1.35.23.72.04,1.5-.5,2.03l-6.5,6.34c-.47.46-.69,1.12-.58,1.78l1.54,8.95c.1.59-.05,1.15-.43,1.6-.38.45-.94.71-1.52.71Z"/>
    <path class="cls-1" d="M18,31.69c.75,0,1.43.42,1.76,1.09l4.02,8.14c.29.6.86,1.01,1.52,1.11l8.99,1.31c.75.11,1.35.62,1.58,1.34.23.72.04,1.49-.5,2.01l-6.5,6.34c-.48.46-.69,1.13-.58,1.79l1.54,8.95c.1.58-.05,1.15-.43,1.59-.38.45-.93.71-1.51.71-.32,0-.62-.08-.91-.23l-8.04-4.23c-.29-.15-.61-.23-.94-.23s-.65.08-.94.23l-8.04,4.23c-.29.15-.6.23-.91.23-.58,0-1.13-.26-1.51-.71-.37-.44-.53-1.01-.43-1.59l1.54-8.95c.11-.66-.1-1.32-.58-1.79l-6.5-6.34c-.54-.53-.73-1.3-.5-2.01.23-.72.84-1.23,1.59-1.34l8.99-1.31c.66-.1,1.23-.51,1.52-1.11l4.02-8.14c.33-.68,1.01-1.09,1.76-1.09M18,31.66c-.71,0-1.42.37-1.79,1.11l-4.02,8.14c-.29.59-.85,1-1.5,1.09l-8.99,1.31c-1.63.24-2.29,2.25-1.1,3.4l6.5,6.34c.47.46.68,1.12.57,1.76l-1.54,8.95c-.22,1.29.8,2.33,1.96,2.33.31,0,.62-.07.93-.23l8.04-4.23c.29-.15.61-.23.93-.23s.64.08.93.23l8.04,4.23c.31.16.62.23.93.23,1.16,0,2.18-1.05,1.96-2.33l-1.54-8.95c-.11-.65.1-1.31.57-1.76l6.5-6.34c1.18-1.15.53-3.16-1.1-3.4l-8.99-1.31c-.65-.09-1.21-.5-1.5-1.09l-4.02-8.14c-.37-.74-1.08-1.11-1.79-1.11h0Z"/>
  </g>
  <g>
    <path class="cls-2" d="M64.68,66.08c-.32,0-.63-.08-.92-.23l-8.04-4.23c-.29-.15-.61-.23-.93-.23s-.65.08-.93.23l-8.04,4.23c-.29.15-.6.23-.92.23-.58,0-1.14-.26-1.52-.71-.38-.45-.53-1.02-.43-1.6l1.54-8.95c.11-.65-.1-1.31-.58-1.78l-6.5-6.34c-.54-.53-.73-1.31-.5-2.03.23-.72.85-1.24,1.6-1.35l8.99-1.31c.65-.1,1.22-.51,1.51-1.1l4.02-8.14c.34-.68,1.02-1.1,1.77-1.1s1.44.42,1.77,1.1l4.02,8.14c.29.59.86,1,1.51,1.1l8.99,1.31c.75.11,1.36.62,1.6,1.35.23.72.04,1.5-.5,2.03l-6.5,6.34c-.47.46-.69,1.12-.58,1.78l1.54,8.95c.1.59-.05,1.15-.43,1.6-.38.45-.94.71-1.52.71Z"/>
    <path class="cls-1" d="M54.79,31.69c.75,0,1.43.42,1.76,1.09l4.02,8.14c.29.6.86,1.01,1.52,1.11l8.99,1.31c.75.11,1.35.62,1.58,1.34.23.72.04,1.49-.5,2.01l-6.5,6.34c-.48.46-.69,1.13-.58,1.79l1.54,8.95c.1.58-.05,1.15-.43,1.59-.38.45-.93.71-1.51.71-.32,0-.62-.08-.91-.23l-8.04-4.23c-.29-.15-.61-.23-.94-.23s-.65.08-.94.23l-8.04,4.23c-.29.15-.6.23-.91.23-.58,0-1.13-.26-1.51-.71-.37-.44-.53-1.01-.43-1.59l1.54-8.95c.11-.66-.1-1.32-.58-1.79l-6.5-6.34c-.54-.53-.73-1.3-.5-2.01.23-.72.84-1.23,1.59-1.34l8.99-1.31c.66-.1,1.23-.51,1.52-1.11l4.02-8.14c.33-.68,1.01-1.09,1.76-1.09M54.79,31.66c-.71,0-1.42.37-1.79,1.11l-4.02,8.14c-.29.59-.85,1-1.5,1.09l-8.99,1.31c-1.63.24-2.29,2.25-1.1,3.4l6.5,6.34c.47.46.68,1.12.57,1.76l-1.54,8.95c-.22,1.29.8,2.33,1.96,2.33.31,0,.62-.07.93-.23l8.04-4.23c.29-.15.61-.23.93-.23s.64.08.93.23l8.04,4.23c.31.16.62.23.93.23,1.16,0,2.18-1.05,1.96-2.33l-1.54-8.95c-.11-.65.1-1.31.57-1.76l6.5-6.34c1.18-1.15.53-3.16-1.1-3.4l-8.99-1.31c-.65-.09-1.21-.5-1.5-1.09l-4.02-8.14c-.37-.74-1.08-1.11-1.79-1.11h0Z"/>
  </g>
  <g>
    <path class="cls-2" d="M101.47,66.08c-.32,0-.63-.08-.92-.23l-8.04-4.23c-.29-.15-.61-.23-.93-.23s-.65.08-.93.23l-8.04,4.23c-.29.15-.6.23-.92.23-.58,0-1.14-.26-1.52-.71-.38-.45-.53-1.02-.43-1.6l1.54-8.95c.11-.65-.1-1.31-.58-1.78l-6.5-6.34c-.54-.53-.73-1.31-.5-2.03.23-.72.85-1.24,1.6-1.35l8.99-1.31c.65-.1,1.22-.51,1.51-1.1l4.02-8.14c.34-.68,1.02-1.1,1.77-1.1s1.44.42,1.77,1.1l4.02,8.14c.29.59.86,1,1.51,1.1l8.99,1.31c.75.11,1.36.62,1.6,1.35.23.72.04,1.5-.5,2.03l-6.5,6.34c-.47.46-.69,1.12-.58,1.78l1.54,8.95c.1.59-.05,1.15-.43,1.6-.38.45-.94.71-1.52.71Z"/>
    <path class="cls-1" d="M91.57,31.69c.75,0,1.43.42,1.76,1.09l4.02,8.14c.29.6.86,1.01,1.52,1.11l8.99,1.31c.75.11,1.35.62,1.58,1.34.23.72.04,1.49-.5,2.01l-6.5,6.34c-.48.46-.69,1.13-.58,1.79l1.54,8.95c.1.58-.05,1.15-.43,1.59-.38.45-.93.71-1.51.71-.32,0-.62-.08-.91-.23l-8.04-4.23c-.29-.15-.61-.23-.94-.23s-.65.08-.94.23l-8.04,4.23c-.29.15-.6.23-.91.23-.58,0-1.13-.26-1.51-.71-.37-.44-.53-1.01-.43-1.59l1.54-8.95c.11-.66-.1-1.32-.58-1.79l-6.5-6.34c-.54-.53-.73-1.3-.5-2.01.23-.72.84-1.23,1.58-1.34l8.99-1.31c.66-.1,1.23-.51,1.52-1.11l4.02-8.14c.33-.68,1.01-1.09,1.76-1.09M91.57,31.66c-.71,0-1.42.37-1.79,1.11l-4.02,8.14c-.29.59-.85,1-1.5,1.09l-8.99,1.31c-1.63.24-2.29,2.25-1.1,3.4l6.5,6.34c.47.46.68,1.12.57,1.76l-1.54,8.95c-.22,1.29.8,2.33,1.96,2.33.31,0,.62-.07.93-.23l8.04-4.23c.29-.15.61-.23.93-.23s.64.08.93.23l8.04,4.23c.31.16.62.23.93.23,1.16,0,2.18-1.05,1.96-2.33l-1.54-8.95c-.11-.65.1-1.31.57-1.76l6.5-6.34c1.18-1.15.53-3.16-1.1-3.4l-8.99-1.31c-.65-.09-1.21-.5-1.5-1.09l-4.02-8.14c-.37-.74-1.08-1.11-1.79-1.11h0Z"/>
  </g>
  <g>
    <path class="cls-2" d="M285.4,98.08c-.32,0-.63-.08-.92-.23l-8.04-4.23c-.29-.15-.61-.23-.93-.23s-.65.08-.93.23l-8.04,4.23c-.29.15-.6.23-.92.23-.58,0-1.14-.26-1.52-.71-.38-.45-.53-1.02-.43-1.6l1.54-8.95c.11-.65-.1-1.32-.58-1.78l-6.5-6.34c-.54-.53-.74-1.31-.5-2.03s.85-1.24,1.6-1.35l8.99-1.31c.65-.1,1.22-.51,1.51-1.1l4.02-8.14c.34-.68,1.01-1.1,1.77-1.1s1.44.42,1.77,1.1l4.02,8.14c.29.59.86,1,1.51,1.1l8.99,1.31c.75.11,1.36.62,1.6,1.35s.04,1.5-.5,2.03l-6.5,6.34c-.47.46-.69,1.12-.58,1.78l1.54,8.95c.1.59-.05,1.15-.43,1.6-.38.45-.94.71-1.52.71Z"/>
    <path class="cls-1" d="M275.51,63.69c.75,0,1.43.42,1.76,1.09l4.02,8.14c.29.6.86,1.01,1.52,1.11l8.99,1.31c.75.11,1.35.62,1.58,1.34.23.72.04,1.49-.5,2.01l-6.5,6.34c-.48.46-.69,1.13-.58,1.79l1.54,8.95c.1.58-.05,1.15-.43,1.59-.38.45-.93.71-1.51.71-.32,0-.62-.08-.91-.23l-8.04-4.23c-.29-.15-.61-.23-.94-.23s-.65.08-.94.23l-8.04,4.23c-.29.15-.6.23-.91.23-.58,0-1.13-.26-1.51-.71-.37-.44-.53-1.01-.43-1.59l1.54-8.95c.11-.66-.1-1.32-.58-1.79l-6.5-6.34c-.54-.53-.73-1.3-.5-2.01.23-.72.84-1.23,1.58-1.34l8.99-1.31c.66-.1,1.23-.51,1.52-1.11l4.02-8.14c.33-.68,1.01-1.09,1.76-1.09M275.51,63.66c-.71,0-1.42.37-1.79,1.11l-4.02,8.14c-.29.59-.85,1-1.5,1.09l-8.99,1.31c-1.63.24-2.29,2.25-1.1,3.4l6.5,6.34c.47.46.68,1.12.57,1.76l-1.54,8.95c-.22,1.29.8,2.33,1.96,2.33.31,0,.62-.07.93-.23l8.04-4.23c.29-.15.61-.23.93-.23s.64.08.93.23l8.04,4.23c.31.16.62.23.93.23,1.16,0,2.18-1.05,1.96-2.33l-1.54-8.95c-.11-.65.1-1.31.57-1.76l6.5-6.34c1.18-1.15.53-3.16-1.1-3.4l-8.99-1.31c-.65-.09-1.21-.5-1.5-1.09l-4.02-8.14c-.37-.74-1.08-1.11-1.79-1.11h0Z"/>
  </g>
  <g>
    <path class="cls-2" d="M248.62,98.08c-.32,0-.63-.08-.92-.23l-8.04-4.23c-.29-.15-.61-.23-.93-.23s-.65.08-.93.23l-8.04,4.23c-.29.15-.6.23-.92.23-.58,0-1.14-.26-1.52-.71-.38-.45-.53-1.02-.43-1.6l1.54-8.95c.11-.65-.1-1.32-.58-1.78l-6.5-6.34c-.54-.53-.74-1.31-.5-2.03s.85-1.24,1.6-1.35l8.99-1.31c.65-.1,1.22-.51,1.51-1.1l4.02-8.14c.34-.68,1.02-1.1,1.77-1.1s1.44.42,1.77,1.1l4.02,8.14c.29.59.86,1,1.51,1.1l8.99,1.31c.75.11,1.36.62,1.6,1.35s.04,1.5-.5,2.03l-6.5,6.34c-.47.46-.69,1.12-.58,1.78l1.54,8.95c.1.59-.05,1.15-.43,1.6-.38.45-.94.71-1.52.71Z"/>
    <path class="cls-1" d="M238.72,63.69c.75,0,1.43.42,1.76,1.09l4.02,8.14c.29.6.86,1.01,1.52,1.11l8.99,1.31c.75.11,1.35.62,1.58,1.34.23.72.04,1.49-.5,2.01l-6.5,6.34c-.48.46-.69,1.13-.58,1.79l1.54,8.95c.1.58-.05,1.15-.43,1.59-.38.45-.93.71-1.51.71-.32,0-.62-.08-.91-.23l-8.04-4.23c-.29-.15-.61-.23-.94-.23s-.65.08-.94.23l-8.04,4.23c-.29.15-.6.23-.91.23-.58,0-1.13-.26-1.51-.71-.37-.44-.53-1.01-.43-1.59l1.54-8.95c.11-.66-.1-1.32-.58-1.79l-6.5-6.34c-.54-.53-.73-1.3-.5-2.01.23-.72.84-1.23,1.59-1.34l8.99-1.31c.66-.1,1.23-.51,1.52-1.11l4.02-8.14c.33-.68,1.01-1.09,1.76-1.09M238.72,63.66c-.71,0-1.42.37-1.79,1.11l-4.02,8.14c-.29.59-.85,1-1.5,1.09l-8.99,1.31c-1.63.24-2.29,2.25-1.1,3.4l6.5,6.34c.47.46.68,1.12.57,1.76l-1.54,8.95c-.22,1.29.8,2.33,1.96,2.33.31,0,.62-.07.93-.23l8.04-4.23c.29-.15.61-.23.93-.23s.64.08.93.23l8.04,4.23c.31.16.62.23.93.23,1.16,0,2.18-1.05,1.96-2.33l-1.54-8.95c-.11-.65.1-1.31.57-1.76l6.5-6.34c1.18-1.15.53-3.16-1.1-3.4l-8.99-1.31c-.65-.09-1.21-.5-1.5-1.09l-4.02-8.14c-.37-.74-1.08-1.11-1.79-1.11h0Z"/>
  </g>
  <g>
    <path class="cls-2" d="M211.83,98.08c-.32,0-.63-.08-.92-.23l-8.04-4.23c-.29-.15-.61-.23-.93-.23s-.65.08-.93.23l-8.04,4.23c-.29.15-.6.23-.92.23-.58,0-1.14-.26-1.52-.71-.38-.45-.53-1.02-.43-1.6l1.54-8.95c.11-.65-.1-1.31-.58-1.78l-6.5-6.34c-.54-.53-.73-1.31-.5-2.03s.85-1.24,1.6-1.35l8.99-1.31c.65-.1,1.22-.51,1.51-1.1l4.02-8.14c.34-.68,1.01-1.1,1.77-1.1s1.44.42,1.77,1.1l4.02,8.14c.29.59.86,1,1.51,1.1l8.99,1.31c.75.11,1.36.62,1.6,1.35s.04,1.5-.5,2.03l-6.5,6.34c-.47.46-.69,1.12-.58,1.78l1.54,8.95c.1.59-.05,1.15-.43,1.6-.38.45-.94.71-1.52.71Z"/>
    <path class="cls-1" d="M201.94,63.69c.75,0,1.43.42,1.76,1.09l4.02,8.14c.29.6.86,1.01,1.52,1.11l8.99,1.31c.75.11,1.35.62,1.58,1.34.23.72.04,1.49-.5,2.01l-6.5,6.34c-.48.46-.69,1.13-.58,1.79l1.54,8.95c.1.58-.05,1.15-.43,1.59-.38.45-.93.71-1.51.71-.32,0-.62-.08-.91-.23l-8.04-4.23c-.29-.15-.61-.23-.94-.23s-.65.08-.94.23l-8.04,4.23c-.29.15-.6.23-.91.23-.58,0-1.13-.26-1.51-.71-.37-.44-.53-1.01-.43-1.59l1.54-8.95c.11-.66-.1-1.32-.58-1.79l-6.5-6.34c-.54-.53-.73-1.3-.5-2.01.23-.72.84-1.23,1.59-1.34l8.99-1.31c.66-.1,1.23-.51,1.52-1.11l4.02-8.14c.33-.68,1.01-1.09,1.76-1.09M201.94,63.66c-.71,0-1.42.37-1.79,1.11l-4.02,8.14c-.29.59-.85,1-1.5,1.09l-8.99,1.31c-1.63.24-2.29,2.25-1.1,3.4l6.5,6.34c.47.46.68,1.12.57,1.76l-1.54,8.95c-.22,1.29.8,2.33,1.96,2.33.31,0,.62-.07.93-.23l8.04-4.23c.29-.15.61-.23.93-.23s.64.08.93.23l8.04,4.23c.31.16.62.23.93.23,1.16,0,2.18-1.05,1.96-2.33l-1.54-8.95c-.11-.65.1-1.31.57-1.76l6.5-6.34c1.18-1.15.53-3.16-1.1-3.4l-8.99-1.31c-.65-.09-1.21-.5-1.5-1.09l-4.02-8.14c-.37-.74-1.08-1.11-1.79-1.11h0Z"/>
  </g>
  <g>
    <path class="cls-2" d="M175.04,98.08c-.32,0-.63-.08-.92-.23l-8.04-4.23c-.29-.15-.61-.23-.93-.23s-.65.08-.93.23l-8.04,4.23c-.29.15-.6.23-.92.23-.58,0-1.14-.26-1.52-.71-.38-.45-.53-1.02-.43-1.6l1.54-8.95c.11-.65-.1-1.31-.58-1.78l-6.5-6.34c-.54-.53-.73-1.31-.5-2.03.23-.72.85-1.24,1.6-1.35l8.99-1.31c.65-.1,1.22-.51,1.51-1.1l4.02-8.14c.34-.68,1.02-1.1,1.77-1.1s1.44.42,1.77,1.1l4.02,8.14c.29.59.86,1,1.51,1.1l8.99,1.31c.75.11,1.36.62,1.6,1.35s.04,1.5-.5,2.03l-6.5,6.34c-.47.46-.69,1.13-.58,1.78l1.54,8.95c.1.59-.05,1.15-.43,1.6-.38.45-.94.71-1.52.71Z"/>
    <path class="cls-1" d="M165.15,63.69c.75,0,1.43.42,1.76,1.09l4.02,8.14c.29.6.86,1.01,1.52,1.11l8.99,1.31c.75.11,1.35.62,1.58,1.34.23.72.04,1.49-.5,2.01l-6.5,6.34c-.48.46-.69,1.13-.58,1.79l1.54,8.95c.1.58-.05,1.15-.43,1.59-.38.45-.93.71-1.51.71-.32,0-.62-.08-.91-.23l-8.04-4.23c-.29-.15-.61-.23-.94-.23s-.65.08-.94.23l-8.04,4.23c-.29.15-.6.23-.91.23-.58,0-1.13-.26-1.51-.71-.37-.44-.53-1.01-.43-1.59l1.54-8.95c.11-.66-.1-1.32-.58-1.79l-6.5-6.34c-.54-.53-.73-1.3-.5-2.01.23-.72.84-1.23,1.59-1.34l8.99-1.31c.66-.1,1.23-.51,1.52-1.11l4.02-8.14c.33-.68,1.01-1.09,1.76-1.09M165.15,63.66c-.71,0-1.42.37-1.79,1.11l-4.02,8.14c-.29.59-.85,1-1.5,1.09l-8.99,1.31c-1.63.24-2.29,2.25-1.1,3.4l6.5,6.34c.47.46.68,1.12.57,1.76l-1.54,8.95c-.22,1.29.8,2.33,1.96,2.33.31,0,.62-.07.93-.23l8.04-4.23c.29-.15.61-.23.93-.23s.64.08.93.23l8.04,4.23c.31.16.62.23.93.23,1.16,0,2.18-1.05,1.96-2.33l-1.54-8.95c-.11-.65.1-1.31.57-1.76l6.5-6.34c1.18-1.15.53-3.16-1.1-3.4l-8.99-1.31c-.65-.09-1.21-.5-1.5-1.09l-4.02-8.14c-.37-.74-1.08-1.11-1.79-1.11h0Z"/>
  </g>
  <g>
    <path class="cls-2" d="M138.25,98.08c-.32,0-.63-.08-.92-.23l-8.04-4.23c-.29-.15-.61-.23-.93-.23s-.65.08-.93.23l-8.04,4.23c-.29.15-.6.23-.92.23-.58,0-1.14-.26-1.52-.71-.38-.45-.53-1.02-.43-1.6l1.54-8.95c.11-.65-.1-1.31-.58-1.78l-6.5-6.34c-.54-.53-.73-1.31-.5-2.03.23-.72.85-1.24,1.6-1.35l8.99-1.31c.65-.1,1.22-.51,1.51-1.1l4.02-8.14c.34-.68,1.02-1.1,1.77-1.1s1.44.42,1.77,1.1l4.02,8.14c.29.59.86,1,1.51,1.1l8.99,1.31c.75.11,1.36.62,1.6,1.35.23.72.04,1.5-.5,2.03l-6.5,6.34c-.47.46-.69,1.12-.58,1.78l1.54,8.95c.1.59-.05,1.15-.43,1.6-.38.45-.94.71-1.52.71Z"/>
    <path class="cls-1" d="M128.36,63.69c.75,0,1.43.42,1.76,1.09l4.02,8.14c.29.6.86,1.01,1.52,1.11l8.99,1.31c.75.11,1.35.62,1.58,1.34.23.72.04,1.49-.5,2.01l-6.5,6.34c-.48.46-.69,1.13-.58,1.79l1.54,8.95c.1.58-.05,1.15-.43,1.59-.38.45-.93.71-1.51.71-.32,0-.62-.08-.91-.23l-8.04-4.23c-.29-.15-.61-.23-.94-.23s-.65.08-.94.23l-8.04,4.23c-.29.15-.6.23-.91.23-.58,0-1.13-.26-1.51-.71-.37-.44-.53-1.01-.43-1.59l1.54-8.95c.11-.66-.1-1.32-.58-1.79l-6.5-6.34c-.54-.53-.73-1.3-.5-2.01.23-.72.84-1.23,1.58-1.34l8.99-1.31c.66-.1,1.23-.51,1.52-1.11l4.02-8.14c.33-.68,1.01-1.09,1.76-1.09M128.36,63.66c-.71,0-1.42.37-1.79,1.11l-4.02,8.14c-.29.59-.85,1-1.5,1.09l-8.99,1.31c-1.63.24-2.29,2.25-1.1,3.4l6.5,6.34c.47.46.68,1.12.57,1.76l-1.54,8.95c-.22,1.29.8,2.33,1.96,2.33.31,0,.62-.07.93-.23l8.04-4.23c.29-.15.61-.23.93-.23s.64.08.93.23l8.04,4.23c.31.16.62.23.93.23,1.16,0,2.18-1.05,1.96-2.33l-1.54-8.95c-.11-.65.1-1.31.57-1.76l6.5-6.34c1.18-1.15.53-3.16-1.1-3.4l-8.99-1.31c-.65-.09-1.21-.5-1.5-1.09l-4.02-8.14c-.37-.74-1.08-1.11-1.79-1.11h0Z"/>
  </g>
  <g>
    <path class="cls-2" d="M322.19,98.08c-.32,0-.63-.08-.92-.23l-8.04-4.23c-.29-.15-.61-.23-.93-.23s-.65.08-.93.23l-8.04,4.23c-.29.15-.6.23-.92.23-.58,0-1.14-.26-1.52-.71-.38-.45-.53-1.02-.43-1.6l1.54-8.95c.11-.65-.1-1.32-.58-1.78l-6.5-6.34c-.54-.53-.74-1.31-.5-2.03s.85-1.24,1.6-1.35l8.99-1.31c.65-.1,1.22-.51,1.51-1.1l4.02-8.14c.34-.68,1.01-1.1,1.77-1.1s1.44.42,1.77,1.1l4.02,8.14c.29.59.86,1,1.51,1.1l8.99,1.31c.75.11,1.36.62,1.6,1.35s.04,1.5-.5,2.03l-6.5,6.34c-.47.46-.69,1.12-.58,1.78l1.54,8.95c.1.59-.05,1.15-.43,1.6-.38.45-.94.71-1.52.71Z"/>
    <path class="cls-1" d="M312.3,63.69c.75,0,1.43.42,1.76,1.09l4.02,8.14c.29.6.86,1.01,1.52,1.11l8.99,1.31c.75.11,1.35.62,1.58,1.34.23.72.04,1.49-.5,2.01l-6.5,6.34c-.48.46-.69,1.13-.58,1.79l1.54,8.95c.1.58-.05,1.15-.43,1.59-.38.45-.93.71-1.51.71-.32,0-.62-.08-.91-.23l-8.04-4.23c-.29-.15-.61-.23-.94-.23s-.65.08-.94.23l-8.04,4.23c-.29.15-.6.23-.91.23-.58,0-1.13-.26-1.51-.71-.37-.44-.53-1.01-.43-1.59l1.54-8.95c.11-.66-.1-1.32-.58-1.79l-6.5-6.34c-.54-.53-.73-1.3-.5-2.01.23-.72.84-1.23,1.58-1.34l8.99-1.31c.66-.1,1.23-.51,1.52-1.11l4.02-8.14c.33-.68,1.01-1.09,1.76-1.09M312.3,63.66c-.71,0-1.42.37-1.79,1.11l-4.02,8.14c-.29.59-.85,1-1.5,1.09l-8.99,1.31c-1.63.24-2.29,2.25-1.1,3.4l6.5,6.34c.47.46.68,1.12.57,1.76l-1.54,8.95c-.22,1.29.8,2.33,1.96,2.33.31,0,.62-.07.93-.23l8.04-4.23c.29-.15.61-.23.93-.23s.64.08.93.23l8.04,4.23c.31.16.62.23.93.23,1.16,0,2.18-1.05,1.96-2.33l-1.54-8.95c-.11-.65.1-1.31.57-1.76l6.5-6.34c1.18-1.15.53-3.16-1.1-3.4l-8.99-1.31c-.65-.09-1.21-.5-1.5-1.09l-4.02-8.14c-.37-.74-1.08-1.11-1.79-1.11h0Z"/>
  </g>
  <g>
    <path class="cls-2" d="M27.89,98.08c-.32,0-.63-.08-.92-.23l-8.04-4.23c-.29-.15-.61-.23-.93-.23s-.65.08-.93.23l-8.04,4.23c-.29.15-.6.23-.92.23-.58,0-1.14-.26-1.52-.71-.38-.45-.53-1.02-.43-1.6l1.54-8.95c.11-.65-.1-1.32-.58-1.78l-6.5-6.34c-.54-.53-.73-1.31-.5-2.03.23-.72.85-1.24,1.6-1.35l8.99-1.31c.65-.1,1.22-.51,1.51-1.1l4.02-8.14c.34-.68,1.02-1.1,1.77-1.1s1.44.42,1.77,1.1l4.02,8.14c.29.59.86,1,1.51,1.1l8.99,1.31c.75.11,1.36.62,1.6,1.35.23.72.04,1.5-.5,2.03l-6.5,6.34c-.47.46-.69,1.12-.58,1.78l1.54,8.95c.1.59-.05,1.15-.43,1.6-.38.45-.94.71-1.52.71Z"/>
    <path class="cls-1" d="M18,63.69c.75,0,1.43.42,1.76,1.09l4.02,8.14c.29.6.86,1.01,1.52,1.11l8.99,1.31c.75.11,1.35.62,1.58,1.34.23.72.04,1.49-.5,2.01l-6.5,6.34c-.48.46-.69,1.13-.58,1.79l1.54,8.95c.1.58-.05,1.15-.43,1.59-.38.45-.93.71-1.51.71-.32,0-.62-.08-.91-.23l-8.04-4.23c-.29-.15-.61-.23-.94-.23s-.65.08-.94.23l-8.04,4.23c-.29.15-.6.23-.91.23-.58,0-1.13-.26-1.51-.71-.37-.44-.53-1.01-.43-1.59l1.54-8.95c.11-.66-.1-1.32-.58-1.79l-6.5-6.34c-.54-.53-.73-1.3-.5-2.01.23-.72.84-1.23,1.59-1.34l8.99-1.31c.66-.1,1.23-.51,1.52-1.11l4.02-8.14c.33-.68,1.01-1.09,1.76-1.09M18,63.66c-.71,0-1.42.37-1.79,1.11l-4.02,8.14c-.29.59-.85,1-1.5,1.09l-8.99,1.31c-1.63.24-2.29,2.25-1.1,3.4l6.5,6.34c.47.46.68,1.12.57,1.76l-1.54,8.95c-.22,1.29.8,2.33,1.96,2.33.31,0,.62-.07.93-.23l8.04-4.23c.29-.15.61-.23.93-.23s.64.08.93.23l8.04,4.23c.31.16.62.23.93.23,1.16,0,2.18-1.05,1.96-2.33l-1.54-8.95c-.11-.65.1-1.31.57-1.76l6.5-6.34c1.18-1.15.53-3.16-1.1-3.4l-8.99-1.31c-.65-.09-1.21-.5-1.5-1.09l-4.02-8.14c-.37-.74-1.08-1.11-1.79-1.11h0Z"/>
  </g>
  <g>
    <path class="cls-2" d="M64.68,98.08c-.32,0-.63-.08-.92-.23l-8.04-4.23c-.29-.15-.61-.23-.93-.23s-.65.08-.93.23l-8.04,4.23c-.29.15-.6.23-.92.23-.58,0-1.14-.26-1.52-.71-.38-.45-.53-1.02-.43-1.6l1.54-8.95c.11-.65-.1-1.31-.58-1.78l-6.5-6.34c-.54-.53-.73-1.31-.5-2.03.23-.72.85-1.24,1.6-1.35l8.99-1.31c.65-.1,1.22-.51,1.51-1.1l4.02-8.14c.34-.68,1.02-1.1,1.77-1.1s1.44.42,1.77,1.1l4.02,8.14c.29.59.86,1,1.51,1.1l8.99,1.31c.75.11,1.36.62,1.6,1.35.23.72.04,1.5-.5,2.03l-6.5,6.34c-.47.46-.69,1.12-.58,1.78l1.54,8.95c.1.59-.05,1.15-.43,1.6-.38.45-.94.71-1.52.71Z"/>
    <path class="cls-1" d="M54.79,63.69c.75,0,1.43.42,1.76,1.09l4.02,8.14c.29.6.86,1.01,1.52,1.11l8.99,1.31c.75.11,1.35.62,1.58,1.34.23.72.04,1.49-.5,2.01l-6.5,6.34c-.48.46-.69,1.13-.58,1.79l1.54,8.95c.1.58-.05,1.15-.43,1.59-.38.45-.93.71-1.51.71-.32,0-.62-.08-.91-.23l-8.04-4.23c-.29-.15-.61-.23-.94-.23s-.65.08-.94.23l-8.04,4.23c-.29.15-.6.23-.91.23-.58,0-1.13-.26-1.51-.71-.37-.44-.53-1.01-.43-1.59l1.54-8.95c.11-.66-.1-1.32-.58-1.79l-6.5-6.34c-.54-.53-.73-1.3-.5-2.01.23-.72.84-1.23,1.59-1.34l8.99-1.31c.66-.1,1.23-.51,1.52-1.11l4.02-8.14c.33-.68,1.01-1.09,1.76-1.09M54.79,63.66c-.71,0-1.42.37-1.79,1.11l-4.02,8.14c-.29.59-.85,1-1.5,1.09l-8.99,1.31c-1.63.24-2.29,2.25-1.1,3.4l6.5,6.34c.47.46.68,1.12.57,1.76l-1.54,8.95c-.22,1.29.8,2.33,1.96,2.33.31,0,.62-.07.93-.23l8.04-4.23c.29-.15.61-.23.93-.23s.64.08.93.23l8.04,4.23c.31.16.62.23.93.23,1.16,0,2.18-1.05,1.96-2.33l-1.54-8.95c-.11-.65.1-1.31.57-1.76l6.5-6.34c1.18-1.15.53-3.16-1.1-3.4l-8.99-1.31c-.65-.09-1.21-.5-1.5-1.09l-4.02-8.14c-.37-.74-1.08-1.11-1.79-1.11h0Z"/>
  </g>
  <g>
    <path class="cls-2" d="M101.47,98.08c-.32,0-.63-.08-.92-.23l-8.04-4.23c-.29-.15-.61-.23-.93-.23s-.65.08-.93.23l-8.04,4.23c-.29.15-.6.23-.92.23-.58,0-1.14-.26-1.52-.71-.38-.45-.53-1.02-.43-1.6l1.54-8.95c.11-.65-.1-1.31-.58-1.78l-6.5-6.34c-.54-.53-.73-1.31-.5-2.03.23-.72.85-1.24,1.6-1.35l8.99-1.31c.65-.1,1.22-.51,1.51-1.1l4.02-8.14c.34-.68,1.02-1.1,1.77-1.1s1.44.42,1.77,1.1l4.02,8.14c.29.59.86,1,1.51,1.1l8.99,1.31c.75.11,1.36.62,1.6,1.35.23.72.04,1.5-.5,2.03l-6.5,6.34c-.47.46-.69,1.12-.58,1.78l1.54,8.95c.1.59-.05,1.15-.43,1.6-.38.45-.94.71-1.52.71Z"/>
    <path class="cls-1" d="M91.57,63.69c.75,0,1.43.42,1.76,1.09l4.02,8.14c.29.6.86,1.01,1.52,1.11l8.99,1.31c.75.11,1.35.62,1.58,1.34.23.72.04,1.49-.5,2.01l-6.5,6.34c-.48.46-.69,1.13-.58,1.79l1.54,8.95c.1.58-.05,1.15-.43,1.59-.38.45-.93.71-1.51.71-.32,0-.62-.08-.91-.23l-8.04-4.23c-.29-.15-.61-.23-.94-.23s-.65.08-.94.23l-8.04,4.23c-.29.15-.6.23-.91.23-.58,0-1.13-.26-1.51-.71-.37-.44-.53-1.01-.43-1.59l1.54-8.95c.11-.66-.1-1.32-.58-1.79l-6.5-6.34c-.54-.53-.73-1.3-.5-2.01.23-.72.84-1.23,1.58-1.34l8.99-1.31c.66-.1,1.23-.51,1.52-1.11l4.02-8.14c.33-.68,1.01-1.09,1.76-1.09M91.57,63.66c-.71,0-1.42.37-1.79,1.11l-4.02,8.14c-.29.59-.85,1-1.5,1.09l-8.99,1.31c-1.63.24-2.29,2.25-1.1,3.4l6.5,6.34c.47.46.68,1.12.57,1.76l-1.54,8.95c-.22,1.29.8,2.33,1.96,2.33.31,0,.62-.07.93-.23l8.04-4.23c.29-.15.61-.23.93-.23s.64.08.93.23l8.04,4.23c.31.16.62.23.93.23,1.16,0,2.18-1.05,1.96-2.33l-1.54-8.95c-.11-.65.1-1.31.57-1.76l6.5-6.34c1.18-1.15.53-3.16-1.1-3.4l-8.99-1.31c-.65-.09-1.21-.5-1.5-1.09l-4.02-8.14c-.37-.74-1.08-1.11-1.79-1.11h0Z"/>
  </g>
  <g>
    <path class="cls-2" d="M285.4,129.06c-.32,0-.63-.08-.92-.23l-8.04-4.23c-.29-.15-.61-.23-.93-.23s-.65.08-.93.23l-8.04,4.23c-.29.15-.6.23-.92.23-.58,0-1.14-.26-1.52-.71-.38-.45-.53-1.02-.43-1.6l1.54-8.95c.11-.65-.1-1.31-.58-1.78l-6.5-6.34c-.54-.53-.74-1.31-.5-2.03s.85-1.24,1.6-1.35l8.99-1.31c.65-.1,1.22-.51,1.51-1.1l4.02-8.14c.34-.68,1.01-1.1,1.77-1.1s1.44.42,1.77,1.1l4.02,8.14c.29.59.86,1,1.51,1.1l8.99,1.31c.75.11,1.36.62,1.6,1.35s.04,1.5-.5,2.03l-6.5,6.34c-.47.46-.69,1.12-.58,1.78l1.54,8.95c.1.59-.05,1.15-.43,1.6-.38.45-.94.71-1.52.71Z"/>
    <path class="cls-1" d="M275.51,94.67c.75,0,1.43.42,1.76,1.09l4.02,8.14c.29.6.86,1.01,1.52,1.11l8.99,1.31c.75.11,1.35.62,1.58,1.34.23.72.04,1.49-.5,2.01l-6.5,6.34c-.48.46-.69,1.13-.58,1.79l1.54,8.95c.1.58-.05,1.15-.43,1.59-.38.45-.93.71-1.51.71-.32,0-.62-.08-.91-.23l-8.04-4.23c-.29-.15-.61-.23-.94-.23s-.65.08-.94.23l-8.04,4.23c-.29.15-.6.23-.91.23-.58,0-1.13-.26-1.51-.71-.37-.44-.53-1.01-.43-1.59l1.54-8.95c.11-.66-.1-1.32-.58-1.79l-6.5-6.34c-.54-.53-.73-1.3-.5-2.01.23-.72.84-1.23,1.58-1.34l8.99-1.31c.66-.1,1.23-.51,1.52-1.11l4.02-8.14c.33-.68,1.01-1.09,1.76-1.09M275.51,94.64c-.71,0-1.42.37-1.79,1.11l-4.02,8.14c-.29.59-.85,1-1.5,1.09l-8.99,1.31c-1.63.24-2.29,2.25-1.1,3.4l6.5,6.34c.47.46.68,1.12.57,1.76l-1.54,8.95c-.22,1.29.8,2.33,1.96,2.33.31,0,.62-.07.93-.23l8.04-4.23c.29-.15.61-.23.93-.23s.64.08.93.23l8.04,4.23c.31.16.62.23.93.23,1.16,0,2.18-1.05,1.96-2.33l-1.54-8.95c-.11-.65.1-1.31.57-1.76l6.5-6.34c1.18-1.15.53-3.16-1.1-3.4l-8.99-1.31c-.65-.09-1.21-.5-1.5-1.09l-4.02-8.14c-.37-.74-1.08-1.11-1.79-1.11h0Z"/>
  </g>
  <g>
    <path class="cls-2" d="M248.62,129.06c-.32,0-.63-.08-.92-.23l-8.04-4.23c-.29-.15-.61-.23-.93-.23s-.65.08-.93.23l-8.04,4.23c-.29.15-.6.23-.92.23-.58,0-1.14-.26-1.52-.71-.38-.45-.53-1.02-.43-1.6l1.54-8.95c.11-.65-.1-1.31-.58-1.78l-6.5-6.34c-.54-.53-.74-1.31-.5-2.03s.85-1.24,1.6-1.35l8.99-1.31c.65-.1,1.22-.51,1.51-1.1l4.02-8.14c.34-.68,1.02-1.1,1.77-1.1s1.44.42,1.77,1.1l4.02,8.14c.29.59.86,1,1.51,1.1l8.99,1.31c.75.11,1.36.62,1.6,1.35s.04,1.5-.5,2.03l-6.5,6.34c-.47.46-.69,1.12-.58,1.78l1.54,8.95c.1.59-.05,1.15-.43,1.6-.38.45-.94.71-1.52.71Z"/>
    <path class="cls-1" d="M238.72,94.67c.75,0,1.43.42,1.76,1.09l4.02,8.14c.29.6.86,1.01,1.52,1.11l8.99,1.31c.75.11,1.35.62,1.58,1.34.23.72.04,1.49-.5,2.01l-6.5,6.34c-.48.46-.69,1.13-.58,1.79l1.54,8.95c.1.58-.05,1.15-.43,1.59-.38.45-.93.71-1.51.71-.32,0-.62-.08-.91-.23l-8.04-4.23c-.29-.15-.61-.23-.94-.23s-.65.08-.94.23l-8.04,4.23c-.29.15-.6.23-.91.23-.58,0-1.13-.26-1.51-.71-.37-.44-.53-1.01-.43-1.59l1.54-8.95c.11-.66-.1-1.32-.58-1.79l-6.5-6.34c-.54-.53-.73-1.3-.5-2.01.23-.72.84-1.23,1.58-1.34l8.99-1.31c.66-.1,1.23-.51,1.52-1.11l4.02-8.14c.33-.68,1.01-1.09,1.76-1.09M238.72,94.64c-.71,0-1.42.37-1.79,1.11l-4.02,8.14c-.29.59-.85,1-1.5,1.09l-8.99,1.31c-1.63.24-2.29,2.25-1.1,3.4l6.5,6.34c.47.46.68,1.12.57,1.76l-1.54,8.95c-.22,1.29.8,2.33,1.96,2.33.31,0,.62-.07.93-.23l8.04-4.23c.29-.15.61-.23.93-.23s.64.08.93.23l8.04,4.23c.31.16.62.23.93.23,1.16,0,2.18-1.05,1.96-2.33l-1.54-8.95c-.11-.65.1-1.31.57-1.76l6.5-6.34c1.18-1.15.53-3.16-1.1-3.4l-8.99-1.31c-.65-.09-1.21-.5-1.5-1.09l-4.02-8.14c-.37-.74-1.08-1.11-1.79-1.11h0Z"/>
  </g>
  <g>
    <path class="cls-2" d="M211.83,129.06c-.32,0-.63-.08-.92-.23l-8.04-4.23c-.29-.15-.61-.23-.93-.23s-.65.08-.93.23l-8.04,4.23c-.29.15-.6.23-.92.23-.58,0-1.14-.26-1.52-.71-.38-.45-.53-1.02-.43-1.6l1.54-8.95c.11-.65-.1-1.31-.58-1.78l-6.5-6.34c-.54-.53-.73-1.31-.5-2.03s.85-1.24,1.6-1.35l8.99-1.31c.65-.1,1.22-.51,1.51-1.1l4.02-8.14c.34-.68,1.01-1.1,1.77-1.1s1.44.42,1.77,1.1l4.02,8.14c.29.59.86,1,1.51,1.1l8.99,1.31c.75.11,1.36.62,1.6,1.35s.04,1.5-.5,2.03l-6.5,6.34c-.47.46-.69,1.12-.58,1.78l1.54,8.95c.1.59-.05,1.15-.43,1.6-.38.45-.94.71-1.52.71Z"/>
    <path class="cls-1" d="M201.94,94.67c.75,0,1.43.42,1.76,1.09l4.02,8.14c.29.6.86,1.01,1.52,1.11l8.99,1.31c.75.11,1.35.62,1.58,1.34.23.72.04,1.49-.5,2.01l-6.5,6.34c-.48.46-.69,1.13-.58,1.79l1.54,8.95c.1.58-.05,1.15-.43,1.59-.38.45-.93.71-1.51.71-.32,0-.62-.08-.91-.23l-8.04-4.23c-.29-.15-.61-.23-.94-.23s-.65.08-.94.23l-8.04,4.23c-.29.15-.6.23-.91.23-.58,0-1.13-.26-1.51-.71-.37-.44-.53-1.01-.43-1.59l1.54-8.95c.11-.66-.1-1.32-.58-1.79l-6.5-6.34c-.54-.53-.73-1.3-.5-2.01.23-.72.84-1.23,1.58-1.34l8.99-1.31c.66-.1,1.23-.51,1.52-1.11l4.02-8.14c.33-.68,1.01-1.09,1.76-1.09M201.94,94.64c-.71,0-1.42.37-1.79,1.11l-4.02,8.14c-.29.59-.85,1-1.5,1.09l-8.99,1.31c-1.63.24-2.29,2.25-1.1,3.4l6.5,6.34c.47.46.68,1.12.57,1.76l-1.54,8.95c-.22,1.29.8,2.33,1.96,2.33.31,0,.62-.07.93-.23l8.04-4.23c.29-.15.61-.23.93-.23s.64.08.93.23l8.04,4.23c.31.16.62.23.93.23,1.16,0,2.18-1.05,1.96-2.33l-1.54-8.95c-.11-.65.1-1.31.57-1.76l6.5-6.34c1.18-1.15.53-3.16-1.1-3.4l-8.99-1.31c-.65-.09-1.21-.5-1.5-1.09l-4.02-8.14c-.37-.74-1.08-1.11-1.79-1.11h0Z"/>
  </g>
  <g>
    <path class="cls-2" d="M175.04,129.06c-.32,0-.63-.08-.92-.23l-8.04-4.23c-.29-.15-.61-.23-.93-.23s-.65.08-.93.23l-8.04,4.23c-.29.15-.6.23-.92.23-.58,0-1.14-.26-1.52-.71-.38-.45-.53-1.02-.43-1.6l1.54-8.95c.11-.65-.1-1.31-.58-1.78l-6.5-6.34c-.54-.53-.73-1.31-.5-2.03.23-.72.85-1.24,1.6-1.35l8.99-1.31c.65-.1,1.22-.51,1.51-1.1l4.02-8.14c.34-.68,1.02-1.1,1.77-1.1s1.44.42,1.77,1.1l4.02,8.14c.29.59.86,1,1.51,1.1l8.99,1.31c.75.11,1.36.62,1.6,1.35s.04,1.5-.5,2.03l-6.5,6.34c-.47.46-.69,1.12-.58,1.78l1.54,8.95c.1.59-.05,1.15-.43,1.6-.38.45-.94.71-1.52.71Z"/>
    <path class="cls-1" d="M165.15,94.67c.75,0,1.43.42,1.76,1.09l4.02,8.14c.29.6.86,1.01,1.52,1.11l8.99,1.31c.75.11,1.35.62,1.58,1.34.23.72.04,1.49-.5,2.01l-6.5,6.34c-.48.46-.69,1.13-.58,1.79l1.54,8.95c.1.58-.05,1.15-.43,1.59-.38.45-.93.71-1.51.71-.32,0-.62-.08-.91-.23l-8.04-4.23c-.29-.15-.61-.23-.94-.23s-.65.08-.94.23l-8.04,4.23c-.29.15-.6.23-.91.23-.58,0-1.13-.26-1.51-.71-.37-.44-.53-1.01-.43-1.59l1.54-8.95c.11-.66-.1-1.32-.58-1.79l-6.5-6.34c-.54-.53-.73-1.3-.5-2.01.23-.72.84-1.23,1.58-1.34l8.99-1.31c.66-.1,1.23-.51,1.52-1.11l4.02-8.14c.33-.68,1.01-1.09,1.76-1.09M165.15,94.64c-.71,0-1.42.37-1.79,1.11l-4.02,8.14c-.29.59-.85,1-1.5,1.09l-8.99,1.31c-1.63.24-2.29,2.25-1.1,3.4l6.5,6.34c.47.46.68,1.12.57,1.76l-1.54,8.95c-.22,1.29.8,2.33,1.96,2.33.31,0,.62-.07.93-.23l8.04-4.23c.29-.15.61-.23.93-.23s.64.08.93.23l8.04,4.23c.31.16.62.23.93.23,1.16,0,2.18-1.05,1.96-2.33l-1.54-8.95c-.11-.65.1-1.31.57-1.76l6.5-6.34c1.18-1.15.53-3.16-1.1-3.4l-8.99-1.31c-.65-.09-1.21-.5-1.5-1.09l-4.02-8.14c-.37-.74-1.08-1.11-1.79-1.11h0Z"/>
  </g>
  <g>
    <path class="cls-2" d="M138.25,129.06c-.32,0-.63-.08-.92-.23l-8.04-4.23c-.29-.15-.61-.23-.93-.23s-.65.08-.93.23l-8.04,4.23c-.29.15-.6.23-.92.23-.58,0-1.14-.26-1.52-.71-.38-.45-.53-1.02-.43-1.6l1.54-8.95c.11-.65-.1-1.31-.58-1.78l-6.5-6.34c-.54-.53-.73-1.31-.5-2.03.23-.72.85-1.24,1.6-1.35l8.99-1.31c.65-.1,1.22-.51,1.51-1.1l4.02-8.14c.34-.68,1.02-1.1,1.77-1.1s1.44.42,1.77,1.1l4.02,8.14c.29.59.86,1,1.51,1.1l8.99,1.31c.75.11,1.36.62,1.6,1.35.23.72.04,1.5-.5,2.03l-6.5,6.34c-.47.46-.69,1.12-.58,1.78l1.54,8.95c.1.59-.05,1.15-.43,1.6-.38.45-.94.71-1.52.71Z"/>
    <path class="cls-1" d="M128.36,94.67c.75,0,1.43.42,1.76,1.09l4.02,8.14c.29.6.86,1.01,1.52,1.11l8.99,1.31c.75.11,1.35.62,1.58,1.34.23.72.04,1.49-.5,2.01l-6.5,6.34c-.48.46-.69,1.13-.58,1.79l1.54,8.95c.1.58-.05,1.15-.43,1.59-.38.45-.93.71-1.51.71-.32,0-.62-.08-.91-.23l-8.04-4.23c-.29-.15-.61-.23-.94-.23s-.65.08-.94.23l-8.04,4.23c-.29.15-.6.23-.91.23-.58,0-1.13-.26-1.51-.71-.37-.44-.53-1.01-.43-1.59l1.54-8.95c.11-.66-.1-1.32-.58-1.79l-6.5-6.34c-.54-.53-.73-1.3-.5-2.01.23-.72.84-1.23,1.58-1.34l8.99-1.31c.66-.1,1.23-.51,1.52-1.11l4.02-8.14c.33-.68,1.01-1.09,1.76-1.09M128.36,94.64c-.71,0-1.42.37-1.79,1.11l-4.02,8.14c-.29.59-.85,1-1.5,1.09l-8.99,1.31c-1.63.24-2.29,2.25-1.1,3.4l6.5,6.34c.47.46.68,1.12.57,1.76l-1.54,8.95c-.22,1.29.8,2.33,1.96,2.33.31,0,.62-.07.93-.23l8.04-4.23c.29-.15.61-.23.93-.23s.64.08.93.23l8.04,4.23c.31.16.62.23.93.23,1.16,0,2.18-1.05,1.96-2.33l-1.54-8.95c-.11-.65.1-1.31.57-1.76l6.5-6.34c1.18-1.15.53-3.16-1.1-3.4l-8.99-1.31c-.65-.09-1.21-.5-1.5-1.09l-4.02-8.14c-.37-.74-1.08-1.11-1.79-1.11h0Z"/>
  </g>
  <g>
    <path class="cls-2" d="M322.19,129.06c-.32,0-.63-.08-.92-.23l-8.04-4.23c-.29-.15-.61-.23-.93-.23s-.65.08-.93.23l-8.04,4.23c-.29.15-.6.23-.92.23-.58,0-1.14-.26-1.52-.71-.38-.45-.53-1.02-.43-1.6l1.54-8.95c.11-.65-.1-1.31-.58-1.78l-6.5-6.34c-.54-.53-.74-1.31-.5-2.03s.85-1.24,1.6-1.35l8.99-1.31c.65-.1,1.22-.51,1.51-1.1l4.02-8.14c.34-.68,1.01-1.1,1.77-1.1s1.44.42,1.77,1.1l4.02,8.14c.29.59.86,1,1.51,1.1l8.99,1.31c.75.11,1.36.62,1.6,1.35s.04,1.5-.5,2.03l-6.5,6.34c-.47.46-.69,1.12-.58,1.78l1.54,8.95c.1.59-.05,1.15-.43,1.6-.38.45-.94.71-1.52.71Z"/>
    <path class="cls-1" d="M312.3,94.67c.75,0,1.43.42,1.76,1.09l4.02,8.14c.29.6.86,1.01,1.52,1.11l8.99,1.31c.75.11,1.35.62,1.58,1.34.23.72.04,1.49-.5,2.01l-6.5,6.34c-.48.46-.69,1.13-.58,1.79l1.54,8.95c.1.58-.05,1.15-.43,1.59-.38.45-.93.71-1.51.71-.32,0-.62-.08-.91-.23l-8.04-4.23c-.29-.15-.61-.23-.94-.23s-.65.08-.94.23l-8.04,4.23c-.29.15-.6.23-.91.23-.58,0-1.13-.26-1.51-.71-.37-.44-.53-1.01-.43-1.59l1.54-8.95c.11-.66-.1-1.32-.58-1.79l-6.5-6.34c-.54-.53-.73-1.3-.5-2.01.23-.72.84-1.23,1.58-1.34l8.99-1.31c.66-.1,1.23-.51,1.52-1.11l4.02-8.14c.33-.68,1.01-1.09,1.76-1.09M312.3,94.64c-.71,0-1.42.37-1.79,1.11l-4.02,8.14c-.29.59-.85,1-1.5,1.09l-8.99,1.31c-1.63.24-2.29,2.25-1.1,3.4l6.5,6.34c.47.46.68,1.12.57,1.76l-1.54,8.95c-.22,1.29.8,2.33,1.96,2.33.31,0,.62-.07.93-.23l8.04-4.23c.29-.15.61-.23.93-.23s.64.08.93.23l8.04,4.23c.31.16.62.23.93.23,1.16,0,2.18-1.05,1.96-2.33l-1.54-8.95c-.11-.65.1-1.31.57-1.76l6.5-6.34c1.18-1.15.53-3.16-1.1-3.4l-8.99-1.31c-.65-.09-1.21-.5-1.5-1.09l-4.02-8.14c-.37-.74-1.08-1.11-1.79-1.11h0Z"/>
  </g>
  <g>
    <path class="cls-2" d="M27.89,129.06c-.32,0-.63-.08-.92-.23l-8.04-4.23c-.29-.15-.61-.23-.93-.23s-.65.08-.93.23l-8.04,4.23c-.29.15-.6.23-.92.23-.58,0-1.14-.26-1.52-.71-.38-.45-.53-1.02-.43-1.6l1.54-8.95c.11-.65-.1-1.31-.58-1.78l-6.5-6.34c-.54-.53-.73-1.31-.5-2.03.23-.72.85-1.24,1.6-1.35l8.99-1.31c.65-.1,1.22-.51,1.51-1.1l4.02-8.14c.34-.68,1.02-1.1,1.77-1.1s1.44.42,1.77,1.1l4.02,8.14c.29.59.86,1,1.51,1.1l8.99,1.31c.75.11,1.36.62,1.6,1.35.23.72.04,1.5-.5,2.03l-6.5,6.34c-.47.46-.69,1.12-.58,1.78l1.54,8.95c.1.59-.05,1.15-.43,1.6-.38.45-.94.71-1.52.71Z"/>
    <path class="cls-1" d="M18,94.67c.75,0,1.43.42,1.76,1.09l4.02,8.14c.29.6.86,1.01,1.52,1.11l8.99,1.31c.75.11,1.35.62,1.58,1.34.23.72.04,1.49-.5,2.01l-6.5,6.34c-.48.46-.69,1.13-.58,1.79l1.54,8.95c.1.58-.05,1.15-.43,1.59-.38.45-.93.71-1.51.71-.32,0-.62-.08-.91-.23l-8.04-4.23c-.29-.15-.61-.23-.94-.23s-.65.08-.94.23l-8.04,4.23c-.29.15-.6.23-.91.23-.58,0-1.13-.26-1.51-.71-.37-.44-.53-1.01-.43-1.59l1.54-8.95c.11-.66-.1-1.32-.58-1.79l-6.5-6.34c-.54-.53-.73-1.3-.5-2.01.23-.72.84-1.23,1.59-1.34l8.99-1.31c.66-.1,1.23-.51,1.52-1.11l4.02-8.14c.33-.68,1.01-1.09,1.76-1.09M18,94.64c-.71,0-1.42.37-1.79,1.11l-4.02,8.14c-.29.59-.85,1-1.5,1.09l-8.99,1.31c-1.63.24-2.29,2.25-1.1,3.4l6.5,6.34c.47.46.68,1.12.57,1.76l-1.54,8.95c-.22,1.29.8,2.33,1.96,2.33.31,0,.62-.07.93-.23l8.04-4.23c.29-.15.61-.23.93-.23s.64.08.93.23l8.04,4.23c.31.16.62.23.93.23,1.16,0,2.18-1.05,1.96-2.33l-1.54-8.95c-.11-.65.1-1.31.57-1.76l6.5-6.34c1.18-1.15.53-3.16-1.1-3.4l-8.99-1.31c-.65-.09-1.21-.5-1.5-1.09l-4.02-8.14c-.37-.74-1.08-1.11-1.79-1.11h0Z"/>
  </g>
  <g>
    <path class="cls-2" d="M64.68,129.06c-.32,0-.63-.08-.92-.23l-8.04-4.23c-.29-.15-.61-.23-.93-.23s-.65.08-.93.23l-8.04,4.23c-.29.15-.6.23-.92.23-.58,0-1.14-.26-1.52-.71-.38-.45-.53-1.02-.43-1.6l1.54-8.95c.11-.65-.1-1.31-.58-1.78l-6.5-6.34c-.54-.53-.73-1.31-.5-2.03.23-.72.85-1.24,1.6-1.35l8.99-1.31c.65-.1,1.22-.51,1.51-1.1l4.02-8.14c.34-.68,1.02-1.1,1.77-1.1s1.44.42,1.77,1.1l4.02,8.14c.29.59.86,1,1.51,1.1l8.99,1.31c.75.11,1.36.62,1.6,1.35.23.72.04,1.5-.5,2.03l-6.5,6.34c-.47.46-.69,1.12-.58,1.78l1.54,8.95c.1.59-.05,1.15-.43,1.6-.38.45-.94.71-1.52.71Z"/>
    <path class="cls-1" d="M54.79,94.67c.75,0,1.43.42,1.76,1.09l4.02,8.14c.29.6.86,1.01,1.52,1.11l8.99,1.31c.75.11,1.35.62,1.58,1.34.23.72.04,1.49-.5,2.01l-6.5,6.34c-.48.46-.69,1.13-.58,1.79l1.54,8.95c.1.58-.05,1.15-.43,1.59-.38.45-.93.71-1.51.71-.32,0-.62-.08-.91-.23l-8.04-4.23c-.29-.15-.61-.23-.94-.23s-.65.08-.94.23l-8.04,4.23c-.29.15-.6.23-.91.23-.58,0-1.13-.26-1.51-.71-.37-.44-.53-1.01-.43-1.59l1.54-8.95c.11-.66-.1-1.32-.58-1.79l-6.5-6.34c-.54-.53-.73-1.3-.5-2.01.23-.72.84-1.23,1.58-1.34l8.99-1.31c.66-.1,1.23-.51,1.52-1.11l4.02-8.14c.33-.68,1.01-1.09,1.76-1.09M54.79,94.64c-.71,0-1.42.37-1.79,1.11l-4.02,8.14c-.29.59-.85,1-1.5,1.09l-8.99,1.31c-1.63.24-2.29,2.25-1.1,3.4l6.5,6.34c.47.46.68,1.12.57,1.76l-1.54,8.95c-.22,1.29.8,2.33,1.96,2.33.31,0,.62-.07.93-.23l8.04-4.23c.29-.15.61-.23.93-.23s.64.08.93.23l8.04,4.23c.31.16.62.23.93.23,1.16,0,2.18-1.05,1.96-2.33l-1.54-8.95c-.11-.65.1-1.31.57-1.76l6.5-6.34c1.18-1.15.53-3.16-1.1-3.4l-8.99-1.31c-.65-.09-1.21-.5-1.5-1.09l-4.02-8.14c-.37-.74-1.08-1.11-1.79-1.11h0Z"/>
  </g>
  <g>
    <path class="cls-2" d="M101.47,129.06c-.32,0-.63-.08-.92-.23l-8.04-4.23c-.29-.15-.61-.23-.93-.23s-.65.08-.93.23l-8.04,4.23c-.29.15-.6.23-.92.23-.58,0-1.14-.26-1.52-.71-.38-.45-.53-1.02-.43-1.6l1.54-8.95c.11-.65-.1-1.31-.58-1.78l-6.5-6.34c-.54-.53-.73-1.31-.5-2.03.23-.72.85-1.24,1.6-1.35l8.99-1.31c.65-.1,1.22-.51,1.51-1.1l4.02-8.14c.34-.68,1.02-1.1,1.77-1.1s1.44.42,1.77,1.1l4.02,8.14c.29.59.86,1,1.51,1.1l8.99,1.31c.75.11,1.36.62,1.6,1.35.23.72.04,1.5-.5,2.03l-6.5,6.34c-.47.46-.69,1.12-.58,1.78l1.54,8.95c.1.59-.05,1.15-.43,1.6-.38.45-.94.71-1.52.71Z"/>
    <path class="cls-1" d="M91.57,94.67c.75,0,1.43.42,1.76,1.09l4.02,8.14c.29.6.86,1.01,1.52,1.11l8.99,1.31c.75.11,1.35.62,1.58,1.34.23.72.04,1.49-.5,2.01l-6.5,6.34c-.48.46-.69,1.13-.58,1.79l1.54,8.95c.1.58-.05,1.15-.43,1.59-.38.45-.93.71-1.51.71-.32,0-.62-.08-.91-.23l-8.04-4.23c-.29-.15-.61-.23-.94-.23s-.65.08-.94.23l-8.04,4.23c-.29.15-.6.23-.91.23-.58,0-1.13-.26-1.51-.71-.37-.44-.53-1.01-.43-1.59l1.54-8.95c.11-.66-.1-1.32-.58-1.79l-6.5-6.34c-.54-.53-.73-1.3-.5-2.01.23-.72.84-1.23,1.58-1.34l8.99-1.31c.66-.1,1.23-.51,1.52-1.11l4.02-8.14c.33-.68,1.01-1.09,1.76-1.09M91.57,94.64c-.71,0-1.42.37-1.79,1.11l-4.02,8.14c-.29.59-.85,1-1.5,1.09l-8.99,1.31c-1.63.24-2.29,2.25-1.1,3.4l6.5,6.34c.47.46.68,1.12.57,1.76l-1.54,8.95c-.22,1.29.8,2.33,1.96,2.33.31,0,.62-.07.93-.23l8.04-4.23c.29-.15.61-.23.93-.23s.64.08.93.23l8.04,4.23c.31.16.62.23.93.23,1.16,0,2.18-1.05,1.96-2.33l-1.54-8.95c-.11-.65.1-1.31.57-1.76l6.5-6.34c1.18-1.15.53-3.16-1.1-3.4l-8.99-1.31c-.65-.09-1.21-.5-1.5-1.09l-4.02-8.14c-.37-.74-1.08-1.11-1.79-1.11h0Z"/>
  </g>
</svg>